SplineFontDB: 3.2
FontName: OCR-C
FullName: OCR-C
FamilyName: OCR-C
Weight: Medium
Copyright: Created by Sauter,U-TOWN_HALL\\Sauter,S-1-5-21-2526881554-1349 with FontForge 1.0 (http://fontforge.sf.net) Edited by jumper-cable-morty
Version: 001.000
ItalicAngle: 0
UnderlinePosition: -150
UnderlineWidth: 50
Ascent: 800
Descent: 200
InvalidEm: 0
sfntRevision: 0x00010000
LayerCount: 2
Layer: 0 0 "Back" 1
Layer: 1 0 "Fore" 0
XUID: [1021 165 1804090495 21867]
UniqueID: 4003151
StyleMap: 0x0040
FSType: 0
OS2Version: 3
OS2_WeightWidthSlopeOnly: 0
OS2_UseTypoMetrics: 0
CreationTime: 1224636879
ModificationTime: 1602196149
PfmFamily: 17
TTFWeight: 500
TTFWidth: 5
LineGap: 90
VLineGap: 0
Panose: 2 0 6 9 0 0 0 0 0 0
OS2TypoAscent: 800
OS2TypoAOffset: 0
OS2TypoDescent: -200
OS2TypoDOffset: 0
OS2TypoLinegap: 90
OS2WinAscent: 1048
OS2WinAOffset: 0
OS2WinDescent: 201
OS2WinDOffset: 0
HheadAscent: 1048
HheadAOffset: 0
HheadDescent: -201
HheadDOffset: 0
OS2SubXSize: 650
OS2SubYSize: 700
OS2SubXOff: 0
OS2SubYOff: 140
OS2SupXSize: 650
OS2SupYSize: 700
OS2SupXOff: 0
OS2SupYOff: 480
OS2StrikeYSize: 49
OS2StrikeYPos: 258
OS2CapHeight: 740
OS2XHeight: 538
OS2Vendor: 'PfEd'
OS2CodePages: 00000001.00000000
OS2UnicodeRanges: 00000003.00000200.00000000.00000000
MarkAttachClasses: 1
DEI: 91125
LangName: 1033
Encoding: UnicodeBmp
UnicodeInterp: none
NameList: AGL For New Fonts
DisplaySize: -48
AntiAlias: 1
FitToEm: 0
WinInfo: 0 38 14
BeginPrivate: 3
BlueValues 25 [0 0 0 0 538 539 740 740]
OtherBlues 11 [-201 -201]
BlueShift 1 9
EndPrivate
BeginChars: 65537 115

StartChar: periodcentered
Encoding: 183 183 1
Width: 715
GlyphClass: 2
Flags: W
LayerCount: 2
Fore
SplineSet
263 236 m 0
 266 236 282 237 344 237 c 0
 431 236 423 237 434 232 c 0
 444 227 451 220 456 210 c 0
 461 199 461 207 461 118 c 0
 461 30 461 37 456 27 c 0
 451 17 444 10 434 5 c 0
 423 0 431 0 345 0 c 0
 264 0 265 0 256 3 c 0
 249 5 245 8 239 14 c 0
 231 22 227 29 225 40 c 0
 224 46 224 191 225 197 c 0
 227 208 231 214 239 222 c 0
 246 230 253 234 263 236 c 0
EndSplineSet
EndChar

StartChar: cedilla
Encoding: 184 184 2
Width: 715
GlyphClass: 2
Flags: W
LayerCount: 2
Fore
SplineSet
240 336 m 0
 243 337 263 337 344 337 c 0
 458 337 447 337 458 332 c 0
 467 327 474 320 479 311 c 0
 485 300 484 314 484 169 c 0
 484 24 485 38 479 27 c 0
 474 17 467 10 458 5 c 0
 448 0 448 0 416 0 c 0
 385 0 382 0 373 3 c 0
 366 5 362 8 356 14 c 0
 350 21 347 25 345 31 c 0
 341 40 342 38 342 123 c 2
 342 201 l 1
 293 201 l 2
 241 201 240 201 232 204 c 0
 225 207 221 210 215 216 c 0
 209 222 206 226 204 232 c 0
 201 240 201 244 201 269 c 0
 201 295 201 298 204 306 c 0
 206 313 209 317 215 323 c 0
 223 331 230 334 240 336 c 0
EndSplineSet
EndChar

StartChar: questiondown
Encoding: 191 191 3
Width: 715
GlyphClass: 2
Flags: W
LayerCount: 2
Fore
SplineSet
429 739 m 0
 440 741 454 738 463 732 c 0
 467 729 557 653 564 646 c 0
 570 640 575 632 577 624 c 2
 579 619 l 1
 579 571 l 1
 579 523 l 1
 577 518 l 2
 576 512 572 505 568 501 c 0
 566 499 518 457 431 382 c 2
 297 268 l 1
 296 154 l 2
 296 25 296 38 291 27 c 0
 286 17 279 10 270 5 c 0
 257 -1 245 -2 232 3 c 0
 225 5 221 8 215 14 c 0
 207 22 203 29 201 40 c 0
 200 46 200 291 201 298 c 0
 203 308 207 315 215 323 c 0
 218 326 279 379 352 440 c 2
 483 553 l 1
 483 571 l 1
 483 589 l 1
 472 599 l 1
 449 618 l 1
 437 629 l 1
 310 521 l 2
 240 461 182 411 180 410 c 0
 166 401 149 400 133 408 c 0
 117 416 107 432 107 450 c 0
 107 464 112 475 122 485 c 0
 125 488 399 723 407 729 c 0
 413 734 422 738 429 739 c 0
EndSplineSet
EndChar

StartChar: acute
Encoding: 180 180 4
Width: 715
GlyphClass: 2
Flags: W
LayerCount: 2
Fore
SplineSet
289 739 m 0
 290 739 315 740 344 739 c 0
 405 739 400 740 411 735 c 0
 420 730 427 723 432 713 c 0
 436 705 437 701 437 692 c 0
 437 684 437 684 413 562 c 0
 400 494 388 437 388 435 c 0
 386 428 382 423 377 418 c 0
 369 409 359 404 348 403 c 0
 341 402 334 403 327 405 c 0
 319 408 315 410 309 417 c 0
 303 423 300 428 297 435 c 0
 297 437 285 494 272 562 c 0
 248 683 248 684 248 692 c 0
 248 698 248 701 249 704 c 0
 252 714 258 723 265 729 c 0
 271 734 281 738 289 739 c 0
EndSplineSet
EndChar

StartChar: uni00AD
Encoding: 173 173 5
Width: 715
GlyphClass: 2
Flags: W
LayerCount: 2
Fore
SplineSet
147 417 m 0
 148 418 236 418 342 418 c 0
 551 418 539 418 548 415 c 0
 559 411 569 401 574 390 c 0
 587 362 569 328 538 323 c 0
 535 322 485 322 340 322 c 2
 146 323 l 1
 142 324 l 2
 128 328 116 338 111 350 c 0
 105 363 105 378 111 390 c 0
 117 404 131 415 147 417 c 0
EndSplineSet
EndChar

StartChar: uni2440
Encoding: 9280 9280 6
Width: 715
GlyphClass: 2
Flags: W
LayerCount: 2
Fore
SplineSet
295 418 m 1
 295 740 l 1
 437 740 l 1
 579 740 l 1
 579 593 l 2
 579 435 579 443 576 434 c 0
 574 428 571 423 566 418 c 0
 558 409 548 404 536 403 c 0
 530 402 523 403 515 405 c 0
 508 408 504 410 498 417 c 0
 491 423 489 427 486 434 c 0
 483 443 483 439 483 545 c 2
 483 644 l 1
 437 644 l 1
 391 644 l 1
 391 356 l 1
 391 34 l 1
 390 0 l 1
 248 0 l 1
 107 0 l 1
 107 147 l 2
 107 305 106 297 110 306 c 0
 112 313 115 317 121 323 c 0
 128 329 131 332 139 334 c 0
 146 337 153 338 160 337 c 0
 171 335 181 330 189 322 c 0
 194 316 197 312 199 306 c 0
 203 297 202 301 202 195 c 2
 202 96 l 1
 249 96 l 1
 295 96 l 1
 295 418 l 1
EndSplineSet
EndChar

StartChar: uni2442
Encoding: 9282 9282 7
Width: 715
GlyphClass: 2
Flags: W
LayerCount: 2
Fore
SplineSet
146 739 m 0
 151 740 162 740 167 738 c 0
 169 738 173 736 176 735 c 0
 185 730 193 723 197 713 c 0
 203 702 202 718 202 559 c 2
 202 418 l 1
 343 418 l 1
 483 418 l 1
 483 557 l 2
 483 707 483 699 486 709 c 0
 489 715 491 719 498 725 c 0
 504 732 508 734 515 737 c 0
 528 741 540 741 552 735 c 0
 558 732 564 727 568 722 c 0
 571 718 576 710 578 704 c 0
 579 700 579 691 579 511 c 2
 579 322 l 1
 485 322 l 1
 390 322 l 1
 390 181 l 2
 390 22 391 38 385 27 c 0
 380 17 373 10 364 5 c 0
 351 -1 339 -2 326 3 c 0
 319 5 315 8 309 14 c 0
 303 21 300 25 298 31 c 0
 294 40 295 33 295 183 c 2
 295 322 l 1
 201 322 l 1
 107 322 l 1
 107 509 l 2
 107 711 106 699 110 709 c 0
 112 715 115 719 121 725 c 0
 129 733 135 737 146 739 c 0
EndSplineSet
EndChar

StartChar: uni2441
Encoding: 9281 9281 8
Width: 715
GlyphClass: 2
Flags: W
LayerCount: 2
Fore
SplineSet
522 739 m 0
 527 740 538 740 543 738 c 0
 548 737 557 732 561 729 c 0
 569 723 575 713 578 704 c 0
 579 700 579 686 579 370 c 0
 579 53 579 40 578 36 c 0
 577 34 575 30 574 27 c 0
 569 17 562 10 552 5 c 0
 540 -1 528 -2 515 3 c 0
 508 5 504 8 498 14 c 0
 491 21 489 25 486 31 c 0
 483 40 483 33 483 183 c 2
 483 322 l 1
 343 322 l 1
 202 322 l 1
 202 181 l 2
 202 22 203 38 197 27 c 0
 193 17 185 10 176 5 c 0
 163 -1 151 -2 138 3 c 0
 132 5 127 8 121 14 c 0
 115 21 112 25 110 31 c 0
 106 40 107 29 107 231 c 2
 107 418 l 1
 295 418 l 1
 483 418 l 1
 483 557 l 2
 483 707 483 699 486 709 c 0
 489 715 491 719 498 725 c 0
 505 733 512 737 522 739 c 0
EndSplineSet
EndChar

StartChar: brokenbar
Encoding: 166 166 9
Width: 715
GlyphClass: 2
Flags: W
LayerCount: 2
Fore
SplineSet
295 476 m 1
 295 1048 l 1
 342 1048 l 1
 390 1048 l 1
 390 476 l 1
 390 -95 l 1
 342 -95 l 1
 295 -95 l 1
 295 476 l 1
EndSplineSet
EndChar

StartChar: Aring
Encoding: 197 197 10
Width: 715
GlyphClass: 2
Flags: W
LayerCount: 2
Fore
SplineSet
238 739 m 0
 240 739 288 740 345 740 c 2
 448 739 l 1
 454 738 l 2
 470 734 484 728 496 718 c 0
 513 704 525 685 530 662 c 0
 531 656 531 655 531 611 c 0
 531 567 531 567 530 561 c 0
 525 538 513 519 496 505 c 0
 485 496 471 489 458 486 c 0
 455 485 453 485 453 485 c 1
 514 274 l 2
 548 158 577 62 577 59 c 0
 579 53 579 43 577 36 c 0
 571 14 551 -1 528 0 c 0
 509 1 493 13 486 31 c 0
 485 33 476 64 466 98 c 2
 448 161 l 1
 342 161 l 1
 237 161 l 1
 218 97 l 2
 208 62 199 31 198 30 c 0
 195 21 188 13 180 8 c 0
 153 -10 116 5 108 37 c 0
 106 43 106 53 108 59 c 0
 108 62 137 158 170 274 c 2
 232 485 l 1
 232 485 230 485 227 486 c 0
 214 489 200 496 190 504 c 0
 172 518 160 537 155 561 c 0
 154 567 154 567 154 611 c 0
 154 655 154 656 155 662 c 0
 160 686 172 704 190 719 c 0
 203 729 221 737 238 739 c 0
436 611 m 1
 436 644 l 1
 342 644 l 1
 249 644 l 1
 249 611 l 1
 249 579 l 1
 342 579 l 1
 436 579 l 1
 436 611 l 1
354 482 m 0
 354 483 353 483 342 483 c 0
 332 483 331 483 331 482 c 0
 331 481 316 430 298 369 c 2
 265 257 l 1
 304 257 l 1
 381 257 l 1
 420 257 l 1
 387 369 l 2
 369 430 354 481 354 482 c 0
EndSplineSet
EndChar

StartChar: Adieresis
Encoding: 196 196 11
Width: 715
GlyphClass: 2
Flags: W
LayerCount: 2
Fore
SplineSet
335 578 m 0
 340 579 344 579 350 578 c 0
 361 576 369 572 377 563 c 0
 380 561 383 557 384 555 c 0
 386 551 575 66 577 59 c 0
 579 53 579 43 577 36 c 0
 570 10 544 -5 518 2 c 0
 505 5 494 15 488 26 c 0
 487 28 467 80 454 114 c 2
 451 120 l 1
 343 120 l 1
 234 120 l 1
 216 74 l 2
 206 49 198 28 197 26 c 0
 195 22 191 17 187 13 c 0
 160 -12 117 1 108 37 c 0
 106 42 106 53 108 58 c 0
 108 61 283 511 297 547 c 0
 299 550 301 555 303 557 c 0
 307 563 314 570 320 573 c 0
 326 576 329 577 335 578 c 0
378 307 m 2
 359 356 343 397 343 398 c 0
 343 399 334 378 307 308 c 2
 271 217 l 1
 307 216 l 1
 378 216 l 1
 414 217 l 1
 378 307 l 2
522 739 m 0
 527 740 538 740 543 738 c 0
 545 738 549 736 552 735 c 0
 562 730 569 723 574 713 c 0
 579 703 579 706 579 655 c 0
 579 605 579 603 576 595 c 0
 571 583 561 572 549 567 c 0
 542 564 538 564 531 564 c 0
 523 564 516 565 510 568 c 0
 496 575 487 588 484 603 c 0
 483 609 483 694 484 700 c 0
 486 711 490 717 498 725 c 0
 505 733 512 737 522 739 c 0
146 739 m 0
 151 740 162 740 167 738 c 0
 169 738 173 736 176 735 c 0
 185 730 193 723 197 713 c 0
 202 703 202 706 202 655 c 0
 203 605 202 603 199 595 c 0
 195 583 185 572 172 567 c 0
 166 564 162 564 154 564 c 0
 147 564 140 565 134 568 c 0
 120 575 110 588 107 603 c 0
 106 609 106 694 107 700 c 0
 110 711 113 717 121 725 c 0
 129 733 135 737 146 739 c 0
EndSplineSet
EndChar

StartChar: AE
Encoding: 198 198 12
Width: 715
GlyphClass: 2
Flags: W
LayerCount: 2
Fore
SplineSet
381 739 m 0
 387 740 533 740 539 739 c 0
 562 735 578 715 578 692 c 0
 578 669 562 649 539 645 c 0
 536 644 526 644 486 644 c 2
 437 644 l 1
 437 531 l 1
 437 418 l 1
 486 418 l 2
 526 418 536 418 539 417 c 0
 562 413 578 393 578 370 c 0
 578 347 562 328 539 323 c 0
 536 322 526 322 486 322 c 2
 437 322 l 1
 437 209 l 1
 437 96 l 1
 486 96 l 2
 526 96 536 96 539 95 c 0
 562 91 578 71 578 48 c 0
 578 25 562 5 539 1 c 0
 533 0 388 0 381 1 c 0
 371 3 364 6 356 14 c 0
 350 21 347 25 345 31 c 0
 342 40 342 40 342 102 c 2
 342 161 l 1
 294 161 l 2
 249 161 246 161 246 160 c 0
 246 159 235 130 222 94 c 0
 209 58 198 28 197 26 c 0
 195 22 191 17 187 13 c 0
 160 -12 117 1 108 37 c 0
 106 43 106 53 108 59 c 0
 110 67 346 712 348 716 c 0
 351 721 361 730 365 733 c 0
 369 736 375 738 381 739 c 0
341 257 m 1
 341 339 l 1
 341 420 l 1
 311 339 l 1
 282 257 l 1
 311 257 l 1
 341 257 l 1
EndSplineSet
EndChar

StartChar: Ntilde
Encoding: 209 209 13
Width: 715
GlyphClass: 2
Flags: W
LayerCount: 2
Fore
SplineSet
148 498 m 0
 151 498 163 498 167 497 c 0
 171 495 179 492 183 489 c 0
 185 487 253 415 335 328 c 2
 483 169 l 1
 483 314 l 2
 484 477 483 461 488 471 c 0
 494 484 505 493 518 497 c 0
 525 498 537 498 543 497 c 0
 548 495 557 491 561 487 c 0
 569 481 575 472 578 462 c 0
 579 458 579 449 579 249 c 0
 579 49 579 40 578 36 c 0
 577 34 575 30 574 27 c 0
 569 17 562 10 552 5 c 0
 540 -1 528 -2 515 3 c 0
 508 5 504 8 498 14 c 0
 495 17 427 89 348 174 c 2
 203 329 l 1
 202 184 l 2
 202 21 203 38 197 27 c 0
 192 17 185 10 176 5 c 0
 169 2 164 1 158 0 c 0
 149 0 138 2 130 7 c 0
 126 9 116 19 113 24 c 0
 111 28 108 35 107 41 c 2
 107 252 l 2
 107 449 107 459 108 462 c 0
 110 468 114 476 117 481 c 0
 125 489 135 495 148 498 c 0
146 739 m 0
 148 739 151 740 153 740 c 0
 155 740 231 732 320 722 c 0
 410 713 484 705 485 705 c 2
 485 705 486 707 486 709 c 0
 489 715 492 719 498 725 c 0
 504 732 508 734 515 737 c 0
 528 741 540 741 552 735 c 0
 562 730 569 723 574 713 c 0
 579 703 578 703 579 675 c 0
 579 647 579 644 576 635 c 0
 574 629 571 625 565 619 c 0
 557 610 547 605 536 604 c 0
 530 604 523 604 366 621 c 0
 276 631 202 638 202 638 c 2
 201 638 200 637 199 635 c 0
 197 629 194 624 189 619 c 0
 181 610 171 606 160 604 c 0
 150 603 138 605 129 611 c 0
 124 614 116 622 113 627 c 0
 112 629 111 633 110 635 c 0
 107 643 107 646 107 672 c 0
 107 697 107 701 110 709 c 0
 112 715 115 719 121 725 c 0
 129 733 136 737 146 739 c 0
EndSplineSet
EndChar

StartChar: Oslash
Encoding: 216 216 14
Width: 715
GlyphClass: 2
Flags: W
LayerCount: 2
Fore
SplineSet
328 739 m 0
 350 742 376 737 397 727 c 0
 422 715 440 696 454 670 c 0
 456 666 458 663 458 663 c 2
 459 663 466 675 474 690 c 0
 491 719 492 720 496 725 c 0
 504 733 516 739 528 740 c 0
 547 741 566 730 574 712 c 0
 580 699 580 684 574 672 c 0
 573 670 558 644 541 614 c 2
 509 560 l 1
 535 508 l 2
 554 471 562 454 565 447 c 0
 582 402 583 355 570 309 c 0
 565 292 563 287 507 175 c 0
 477 116 451 64 449 61 c 0
 444 53 439 45 432 38 c 0
 394 -1 336 -11 288 13 c 0
 263 25 245 43 231 70 c 0
 229 74 227 77 227 77 c 1
 226 76 219 64 211 50 c 0
 194 20 192 18 187 13 c 0
 160 -12 117 1 108 37 c 0
 105 46 106 58 111 68 c 0
 112 70 127 96 144 125 c 2
 176 180 l 1
 157 217 l 1
 132 267 l 2
 129 274 125 283 123 287 c 0
 116 305 111 324 108 345 c 0
 107 357 107 383 108 395 c 0
 111 415 115 433 122 451 c 0
 126 461 233 674 237 681 c 0
 253 706 276 724 304 733 c 0
 312 736 318 738 328 739 c 0
349 643 m 0
 339 645 329 643 322 635 c 0
 319 632 315 626 266 526 c 0
 237 467 212 417 211 414 c 0
 208 408 205 397 204 389 c 0
 202 380 202 359 204 351 c 0
 205 344 208 333 210 328 c 0
 211 324 233 279 234 279 c 2
 234 279 399 561 400 563 c 0
 400 564 397 570 383 598 c 0
 367 630 366 632 363 635 c 0
 359 639 355 642 349 643 c 0
463 439 m 0
 457 452 452 461 452 461 c 2
 451 461 285 177 285 176 c 2
 302 142 l 2
 318 110 319 108 322 104 c 0
 326 100 330 98 336 97 c 0
 346 94 355 97 363 104 c 0
 366 108 367 110 396 168 c 2
 450 276 l 2
 471 316 474 324 477 331 c 0
 482 347 484 363 483 379 c 0
 481 399 478 409 463 439 c 0
EndSplineSet
EndChar

StartChar: odieresis
Encoding: 246 246 15
Width: 715
GlyphClass: 2
Flags: W
LayerCount: 2
Fore
SplineSet
317 578 m 0
 327 579 357 579 367 578 c 0
 398 574 426 558 445 534 c 0
 447 532 458 516 470 500 c 2
 525 422 l 1
 562 369 l 2
 571 355 576 342 578 326 c 0
 579 320 579 314 579 286 c 0
 578 253 578 253 577 246 c 0
 574 234 569 221 563 212 c 0
 562 210 541 181 517 147 c 2
 461 67 l 2
 455 58 447 47 445 45 c 0
 426 21 398 5 367 1 c 0
 357 0 328 0 318 1 c 0
 287 5 259 21 240 45 c 0
 234 51 129 201 122 213 c 0
 116 222 111 234 109 246 c 0
 107 253 107 253 107 286 c 0
 107 314 107 320 108 326 c 0
 109 339 113 351 119 362 c 0
 122 367 134 384 205 485 c 0
 239 534 240 535 247 543 c 0
 266 562 291 574 317 578 c 0
362 481 m 2
 358 483 l 1
 344 483 l 1
 327 483 l 2
 323 482 319 479 316 477 c 0
 315 475 306 463 297 449 c 2
 241 370 l 1
 203 315 l 1
 203 290 l 1
 202 264 l 1
 240 210 l 1
 296 130 l 2
 306 116 315 104 316 103 c 0
 318 101 321 99 323 98 c 2
 327 96 l 1
 342 96 l 1
 358 96 l 1
 362 98 l 2
 364 99 367 101 369 103 c 0
 370 104 386 125 403 150 c 2
 459 230 l 1
 483 264 l 1
 483 289 l 2
 483 312 483 314 482 316 c 0
 481 317 471 332 459 349 c 2
 404 427 l 2
 386 452 371 474 369 476 c 0
 367 478 365 480 362 481 c 2
522 739 m 0
 527 740 538 740 543 738 c 0
 545 738 549 736 552 735 c 0
 562 730 569 723 574 713 c 0
 579 703 579 706 579 655 c 0
 579 605 579 603 576 595 c 0
 571 583 561 572 549 567 c 0
 542 564 538 564 531 564 c 0
 523 564 516 565 510 568 c 0
 496 575 487 588 484 603 c 0
 483 609 483 694 484 700 c 0
 486 711 490 717 498 725 c 0
 505 733 512 737 522 739 c 0
146 739 m 0
 151 740 162 740 167 738 c 0
 169 738 173 736 176 735 c 0
 185 730 193 723 197 713 c 0
 202 703 202 706 202 655 c 0
 203 605 202 603 199 595 c 0
 195 583 185 572 172 567 c 0
 166 564 162 564 154 564 c 0
 147 564 140 565 134 568 c 0
 120 575 110 588 107 603 c 0
 106 609 106 694 107 700 c 0
 110 711 113 717 121 725 c 0
 129 733 135 737 146 739 c 0
EndSplineSet
EndChar

StartChar: udieresis
Encoding: 252 252 16
Width: 715
GlyphClass: 2
Flags: W
LayerCount: 2
Fore
SplineSet
147 578 m 0
 152 579 156 579 162 578 c 0
 172 576 180 573 187 565 c 0
 194 559 198 553 201 542 c 0
 202 539 202 524 202 337 c 0
 203 145 203 135 204 132 c 0
 208 118 217 107 230 101 c 0
 240 96 230 96 343 96 c 0
 455 96 446 96 456 101 c 0
 468 107 478 118 482 132 c 0
 483 135 483 145 483 337 c 0
 483 526 484 539 484 542 c 0
 489 556 497 567 509 573 c 0
 529 583 550 579 566 563 c 0
 571 558 574 554 576 548 c 0
 579 538 579 551 579 335 c 0
 579 140 579 135 578 126 c 0
 576 110 571 96 564 80 c 0
 543 37 501 7 453 1 c 0
 444 0 439 0 343 0 c 0
 257 0 241 0 235 1 c 0
 168 9 115 61 108 128 c 0
 106 139 106 532 107 539 c 0
 110 554 120 567 132 573 c 0
 138 576 141 577 147 578 c 0
428 739 m 0
 433 740 443 740 448 738 c 0
 451 738 455 736 458 735 c 0
 467 730 474 723 479 713 c 0
 484 703 484 706 484 655 c 0
 484 605 484 603 481 595 c 0
 477 583 466 572 454 567 c 0
 448 564 443 564 436 564 c 0
 429 564 422 565 415 568 c 0
 402 575 392 588 389 603 c 0
 388 609 388 694 389 700 c 0
 391 711 395 717 403 725 c 0
 411 733 417 737 428 739 c 0
240 739 m 0
 245 740 255 740 261 738 c 0
 263 738 267 736 270 735 c 0
 279 730 286 723 291 713 c 0
 296 703 296 706 296 655 c 0
 297 605 296 603 293 595 c 0
 289 583 278 572 266 567 c 0
 260 564 256 564 248 564 c 0
 241 564 234 565 228 568 c 0
 214 575 204 588 201 603 c 0
 200 609 200 694 201 700 c 0
 203 711 207 717 215 725 c 0
 223 733 229 737 240 739 c 0
EndSplineSet
EndChar

StartChar: sterling
Encoding: 163 163 17
Width: 715
GlyphClass: 2
Flags: W
LayerCount: 2
Fore
SplineSet
490 739 m 0
 501 740 532 740 539 739 c 0
 562 735 578 715 578 692 c 0
 578 670 564 652 542 645 c 0
 540 645 534 644 519 644 c 0
 498 643 496 643 488 639 c 0
 478 635 470 627 465 617 c 0
 464 614 453 579 435 516 c 0
 419 462 407 419 407 418 c 1
 471 418 l 2
 523 418 536 418 539 417 c 0
 562 413 578 393 578 370 c 0
 578 347 562 328 539 323 c 0
 536 322 521 322 457 322 c 2
 378 322 l 1
 378 321 l 2
 378 320 363 269 345 208 c 2
 312 96 l 1
 426 96 l 2
 550 95 540 96 549 92 c 0
 567 85 578 67 578 48 c 0
 578 24 561 4 538 1 c 0
 535 0 485 0 340 0 c 2
 146 0 l 1
 142 2 l 1
 120 8 107 26 107 48 c 0
 107 70 120 88 142 94 c 0
 146 95 147 95 179 96 c 2
 213 96 l 1
 245 209 l 2
 264 270 278 321 278 322 c 1
 212 322 l 1
 146 323 l 1
 142 324 l 2
 120 331 107 348 107 370 c 0
 107 392 120 410 142 416 c 1
 146 418 l 1
 226 418 l 1
 307 418 l 1
 339 529 l 2
 357 590 373 643 374 646 c 0
 387 680 412 709 445 725 c 0
 460 732 474 736 490 739 c 0
EndSplineSet
EndChar

StartChar: yen
Encoding: 165 165 18
Width: 715
GlyphClass: 2
Flags: W
LayerCount: 2
Fore
SplineSet
147 739 m 0
 157 741 170 738 179 733 c 0
 184 730 190 723 194 718 c 0
 195 716 229 658 270 589 c 2
 342 465 l 1
 344 467 l 1
 416 590 l 1
 490 716 l 2
 506 742 541 748 563 727 c 0
 568 723 572 717 574 712 c 0
 580 699 580 684 574 672 c 0
 573 670 531 598 481 513 c 2
 390 357 l 1
 390 347 l 1
 390 337 l 1
 463 337 l 1
 539 337 l 1
 562 332 578 313 578 289 c 0
 578 266 562 247 539 242 c 1
 463 242 l 1
 390 242 l 1
 390 140 l 2
 390 27 390 38 385 27 c 0
 380 17 373 10 364 5 c 0
 351 -1 339 -2 326 3 c 0
 319 5 315 8 309 14 c 0
 303 21 300 25 298 31 c 0
 294 40 295 36 295 143 c 2
 295 242 l 1
 220 242 l 1
 146 242 l 1
 142 243 l 2
 120 250 107 268 107 289 c 0
 107 311 120 329 142 336 c 2
 146 337 l 1
 220 337 l 1
 295 337 l 1
 295 347 l 1
 295 357 l 1
 204 513 l 2
 153 598 112 670 111 672 c 0
 105 684 105 699 111 712 c 0
 117 726 131 736 147 739 c 0
EndSplineSet
EndChar

StartChar: space
Encoding: 32 32 19
Width: 715
GlyphClass: 2
Flags: W
LayerCount: 2
Fore
SplineSet
390 528 m 1024
EndSplineSet
EndChar

StartChar: exclam
Encoding: 33 33 20
Width: 715
GlyphClass: 2
Flags: W
LayerCount: 2
Fore
SplineSet
310 135 m 0
 313 136 321 136 344 136 c 0
 378 136 377 136 387 131 c 0
 397 126 404 119 409 109 c 0
 414 99 414 100 414 68 c 0
 414 36 414 37 409 27 c 0
 404 17 397 10 387 5 c 0
 377 0 378 0 345 0 c 0
 314 0 311 0 303 3 c 0
 296 5 292 8 286 14 c 0
 279 21 277 25 274 31 c 0
 271 39 271 42 271 68 c 0
 271 94 271 97 274 105 c 0
 277 111 279 116 286 122 c 0
 293 130 300 133 310 135 c 0
312 739 m 0
 313 740 328 740 344 739 c 0
 378 739 377 739 387 735 c 0
 397 730 404 723 409 713 c 0
 412 706 413 702 414 695 c 0
 414 691 410 633 402 508 c 0
 396 408 390 326 390 324 c 0
 389 313 383 302 375 295 c 0
 370 290 364 286 357 284 c 0
 352 282 351 282 342 282 c 0
 334 282 333 282 328 284 c 0
 310 290 297 306 295 324 c 0
 294 333 271 690 271 695 c 0
 272 701 273 706 276 713 c 0
 279 719 283 725 289 729 c 0
 295 734 305 738 312 739 c 0
EndSplineSet
EndChar

StartChar: quotedbl
Encoding: 34 34 21
Width: 715
GlyphClass: 2
Flags: W
LayerCount: 2
Fore
SplineSet
107 713 m 1
 107 740 l 1
 343 740 l 1
 579 740 l 1
 579 705 l 1
 579 671 l 1
 576 658 l 1
 574 644 l 1
 572 644 l 1
 570 644 l 1
 551 544 l 2
 540 489 531 442 530 439 c 0
 526 422 512 408 495 404 c 0
 489 402 478 402 472 404 c 0
 455 409 442 422 438 438 c 0
 437 440 428 487 417 542 c 2
 397 644 l 1
 342 644 l 1
 288 644 l 1
 268 542 l 2
 257 487 248 440 247 438 c 0
 243 422 230 409 213 404 c 0
 210 403 207 403 202 403 c 0
 194 403 191 403 184 406 c 0
 172 410 160 422 156 434 c 0
 155 437 147 477 137 532 c 2
 113 655 l 1
 107 686 l 1
 107 713 l 1
EndSplineSet
EndChar

StartChar: numbersign
Encoding: 35 35 22
Width: 715
GlyphClass: 2
Flags: W
LayerCount: 2
Fore
SplineSet
240 739 m 0
 245 740 255 740 261 738 c 0
 263 738 267 736 270 735 c 0
 279 730 286 723 291 713 c 0
 296 702 296 708 296 640 c 2
 296 579 l 1
 343 579 l 1
 389 579 l 1
 389 637 l 2
 389 700 389 700 392 709 c 0
 394 715 397 719 403 725 c 0
 409 732 413 734 420 737 c 0
 433 741 445 741 458 735 c 0
 467 730 474 723 479 713 c 0
 484 702 484 708 484 640 c 2
 484 579 l 1
 510 579 l 2
 529 579 536 579 539 578 c 0
 562 574 578 554 578 531 c 0
 578 508 562 488 539 484 c 0
 536 483 529 483 510 483 c 2
 484 483 l 1
 484 430 l 1
 484 378 l 1
 510 378 l 2
 529 378 536 378 539 377 c 0
 562 372 578 353 578 330 c 0
 578 307 562 287 539 283 c 0
 536 282 529 282 510 282 c 2
 484 282 l 1
 484 223 l 2
 484 175 484 164 483 160 c 0
 479 137 460 121 436 121 c 0
 413 121 394 137 389 160 c 1
 389 223 l 1
 389 282 l 1
 342 282 l 1
 296 282 l 1
 296 223 l 1
 296 160 l 1
 291 137 272 121 248 121 c 0
 225 121 206 137 201 160 c 1
 201 223 l 1
 201 282 l 1
 173 282 l 2
 147 282 146 282 142 284 c 0
 120 290 107 308 107 330 c 0
 107 352 120 370 142 376 c 0
 146 377 147 377 173 378 c 2
 201 378 l 1
 201 430 l 1
 201 483 l 1
 173 483 l 2
 147 483 146 484 142 485 c 0
 120 491 107 509 107 531 c 0
 107 553 120 571 142 577 c 0
 146 578 147 579 173 579 c 2
 201 579 l 1
 201 637 l 2
 201 700 201 700 204 709 c 0
 206 715 209 719 215 725 c 0
 223 733 229 737 240 739 c 0
389 430 m 1
 389 483 l 1
 342 483 l 1
 296 483 l 1
 296 430 l 1
 296 378 l 1
 342 378 l 1
 389 378 l 1
 389 430 l 1
EndSplineSet
EndChar

StartChar: dollar
Encoding: 36 36 23
Width: 715
GlyphClass: 2
Flags: W
LayerCount: 2
Fore
SplineSet
334 739 m 0
 339 740 349 740 355 738 c 0
 357 738 361 736 364 735 c 0
 373 730 380 723 385 713 c 0
 390 702 390 708 390 640 c 2
 390 579 l 1
 463 579 l 2
 522 579 536 579 539 578 c 0
 562 574 578 554 578 531 c 0
 578 508 562 488 539 484 c 0
 536 483 509 483 369 483 c 2
 202 483 l 1
 202 451 l 1
 202 418 l 1
 371 418 l 2
 531 418 540 418 543 417 c 0
 549 415 557 411 561 407 c 0
 567 403 571 398 574 391 c 0
 579 381 579 389 579 289 c 0
 579 190 579 198 574 188 c 0
 569 178 562 171 552 166 c 0
 541 161 549 161 465 161 c 2
 390 161 l 1
 390 100 l 2
 390 32 390 37 385 27 c 0
 380 17 373 10 364 5 c 0
 351 -1 339 -2 326 3 c 0
 319 5 315 8 309 14 c 0
 303 21 300 25 298 31 c 0
 295 40 295 40 295 102 c 2
 295 161 l 1
 220 161 l 1
 146 161 l 1
 142 162 l 2
 120 169 107 187 107 209 c 0
 107 230 120 248 142 255 c 2
 146 256 l 1
 315 256 l 1
 483 257 l 1
 483 289 l 1
 483 322 l 1
 317 322 l 2
 137 322 147 322 138 325 c 0
 131 328 127 331 121 337 c 0
 113 345 110 351 107 362 c 0
 106 368 106 533 107 539 c 0
 110 550 113 556 121 564 c 0
 127 571 131 573 138 576 c 0
 147 579 145 579 223 579 c 2
 295 579 l 1
 295 637 l 2
 295 700 295 700 298 709 c 0
 300 715 303 719 309 725 c 0
 317 733 323 737 334 739 c 0
EndSplineSet
EndChar

StartChar: percent
Encoding: 37 37 24
Width: 715
GlyphClass: 2
Flags: W
LayerCount: 2
Fore
SplineSet
428 176 m 2
 486 176 l 2
 546 176 542 176 552 171 c 0
 562 167 569 160 574 150 c 0
 579 139 579 143 579 88 c 0
 579 34 579 37 574 27 c 0
 569 17 562 10 552 5 c 0
 542 0 546 0 487 0 c 0
 430 0 429 0 420 3 c 0
 413 5 409 8 403 14 c 0
 397 21 394 25 392 31 c 0
 389 40 389 41 389 88 c 0
 389 136 389 137 392 145 c 0
 394 152 397 156 403 162 c 0
 411 170 417 174 428 176 c 2
522 658 m 0
 523 659 527 659 531 659 c 0
 539 659 545 658 552 654 c 0
 557 651 559 650 564 645 c 0
 570 640 571 638 573 633 c 0
 577 625 578 619 578 611 c 0
 578 602 576 593 571 586 c 0
 570 584 484 474 381 341 c 0
 234 153 191 98 187 94 c 0
 182 90 180 88 176 86 c 0
 167 82 162 80 152 81 c 0
 139 81 130 85 121 95 c 0
 115 100 114 102 112 107 c 0
 108 115 106 121 107 130 c 0
 107 139 109 145 113 152 c 0
 114 154 200 264 303 397 c 0
 445 580 492 640 497 645 c 0
 502 650 504 651 508 653 c 0
 513 656 517 658 522 658 c 0
146 739 m 0
 149 739 161 740 203 740 c 0
 264 739 259 740 270 735 c 0
 279 730 286 723 291 713 c 0
 296 703 296 706 296 652 c 0
 296 597 296 600 291 590 c 0
 286 580 279 573 270 568 c 0
 259 563 263 564 205 563 c 0
 148 563 147 563 138 566 c 0
 132 569 127 571 121 578 c 0
 113 586 110 592 107 603 c 0
 106 609 106 694 107 700 c 0
 110 711 113 717 121 725 c 0
 129 733 136 737 146 739 c 0
EndSplineSet
EndChar

StartChar: ampersand
Encoding: 38 38 25
Width: 715
GlyphClass: 2
Flags: W
LayerCount: 2
Fore
SplineSet
232 658 m 0
 239 659 246 659 295 659 c 0
 346 659 350 659 359 658 c 0
 375 656 389 652 404 644 c 0
 433 630 455 608 470 579 c 0
 477 563 482 548 483 531 c 0
 484 524 484 516 484 482 c 2
 484 441 l 1
 483 437 l 2
 481 431 477 425 474 420 c 0
 472 418 448 398 411 366 c 0
 378 337 350 314 350 313 c 0
 349 312 352 309 399 258 c 0
 427 228 450 204 451 204 c 2
 476 225 l 2
 501 247 506 251 513 253 c 0
 521 257 532 258 540 256 c 0
 562 251 578 231 578 209 c 0
 578 198 575 187 568 179 c 0
 566 177 555 166 540 154 c 2
 516 134 l 1
 518 132 l 2
 519 131 530 118 544 104 c 0
 557 90 569 77 570 76 c 0
 584 56 581 29 563 13 c 0
 549 -1 527 -4 510 5 c 0
 502 9 499 12 471 41 c 0
 456 58 444 71 443 71 c 2
 408 41 l 2
 389 25 372 11 371 9 c 0
 367 7 360 3 355 1 c 0
 351 0 347 0 297 0 c 0
 251 0 242 0 235 1 c 0
 168 9 115 61 108 128 c 0
 107 134 107 144 107 176 c 0
 107 214 107 216 108 220 c 0
 110 229 115 237 121 243 c 0
 123 245 144 263 168 283 c 2
 210 320 l 1
 164 370 l 2
 139 397 117 421 116 422 c 0
 112 427 109 433 108 439 c 0
 107 443 107 446 107 484 c 0
 107 528 107 534 111 550 c 0
 120 585 141 615 171 636 c 0
 189 647 210 655 232 658 c 0
353 562 m 0
 350 563 345 563 297 563 c 2
 242 563 l 1
 224 559 210 547 204 529 c 0
 203 525 203 523 203 497 c 2
 202 469 l 1
 242 426 l 1
 283 383 l 1
 336 427 l 1
 389 472 l 1
 388 498 l 2
 388 528 388 527 383 537 c 0
 378 549 367 558 353 562 c 0
327 196 m 1
 276 250 l 1
 239 218 l 1
 202 187 l 1
 203 161 l 2
 203 132 203 132 207 123 c 0
 213 111 224 102 237 97 c 0
 242 96 242 96 283 96 c 2
 325 96 l 1
 350 117 l 2
 364 129 376 139 376 140 c 2
 378 141 l 1
 327 196 l 1
EndSplineSet
EndChar

StartChar: quotesingle
Encoding: 39 39 26
Width: 715
GlyphClass: 2
Flags: W
LayerCount: 2
Fore
SplineSet
287 739 m 0
 290 739 302 740 344 740 c 0
 405 739 400 740 411 735 c 0
 420 730 427 723 432 713 c 0
 434 710 435 706 436 704 c 0
 437 699 438 690 437 685 c 0
 436 680 342 356 339 351 c 0
 335 341 326 331 316 327 c 0
 303 321 288 321 276 326 c 0
 263 332 254 343 249 357 c 2
 248 362 l 1
 248 528 l 1
 248 699 l 2
 249 704 252 711 254 716 c 0
 257 721 267 730 271 733 c 0
 275 736 282 738 287 739 c 0
EndSplineSet
EndChar

StartChar: parenleft
Encoding: 40 40 27
Width: 715
GlyphClass: 2
Flags: W
LayerCount: 2
Fore
SplineSet
428 739 m 0
 433 740 444 740 449 738 c 0
 465 734 477 722 482 707 c 0
 484 701 484 701 484 692 c 0
 484 683 484 683 482 677 c 0
 481 674 479 669 477 667 c 0
 476 664 449 630 418 590 c 0
 387 551 361 516 359 514 c 0
 353 504 347 490 345 478 c 0
 344 472 344 467 344 370 c 0
 344 273 344 267 345 262 c 0
 347 249 353 236 359 226 c 0
 361 223 387 189 418 149 c 0
 449 110 476 75 477 73 c 0
 479 71 481 66 482 63 c 0
 484 57 484 57 484 48 c 0
 484 39 484 39 482 33 c 0
 475 14 459 2 439 0 c 0
 426 -1 412 5 402 15 c 0
 399 19 290 158 283 168 c 0
 265 192 254 221 249 253 c 2
 248 262 l 1
 248 370 l 1
 248 477 l 1
 249 487 l 2
 254 519 265 548 283 572 c 0
 290 582 399 721 402 725 c 0
 409 732 418 737 428 739 c 0
EndSplineSet
EndChar

StartChar: parenright
Encoding: 41 41 28
Width: 715
GlyphClass: 2
Flags: W
LayerCount: 2
Fore
SplineSet
242 739 m 0
 252 741 264 738 273 733 c 0
 280 729 284 724 343 648 c 0
 374 608 401 574 403 571 c 0
 420 546 431 519 436 487 c 2
 437 477 l 1
 437 370 l 1
 437 262 l 1
 436 253 l 2
 431 221 420 193 403 169 c 0
 401 166 374 131 343 91 c 0
 284 16 280 11 273 7 c 0
 265 2 254 0 245 0 c 0
 239 1 234 2 227 5 c 0
 215 11 207 21 202 35 c 0
 201 39 201 41 201 48 c 0
 201 55 201 57 202 61 c 0
 205 70 208 73 232 105 c 2
 290 179 l 2
 309 203 325 224 326 226 c 0
 333 236 338 250 340 262 c 0
 341 267 341 273 341 370 c 0
 341 467 341 472 340 478 c 0
 338 490 333 504 326 513 c 0
 325 515 309 537 290 561 c 2
 232 635 l 2
 208 666 205 670 202 679 c 0
 201 683 201 685 201 692 c 0
 201 699 201 701 202 705 c 0
 204 711 208 717 211 722 c 0
 218 731 231 738 242 739 c 0
EndSplineSet
EndChar

StartChar: asterisk
Encoding: 42 42 29
Width: 715
GlyphClass: 2
Flags: W
LayerCount: 2
Fore
SplineSet
331 658 m 0
 335 659 337 659 344 659 c 0
 353 659 357 658 364 654 c 0
 375 648 385 637 389 624 c 2
 390 620 l 1
 390 547 l 1
 391 474 l 1
 446 521 l 2
 477 547 503 570 504 570 c 0
 513 577 526 580 537 578 c 0
 561 575 578 555 578 531 c 0
 578 523 577 517 573 509 c 0
 571 505 569 503 565 498 c 0
 562 495 527 465 488 431 c 2
 417 370 l 1
 488 308 l 2
 527 275 562 245 565 242 c 0
 569 237 571 235 573 231 c 0
 577 223 578 217 578 209 c 0
 578 201 577 195 573 188 c 0
 566 173 553 164 537 161 c 0
 526 160 513 163 504 169 c 0
 503 170 477 192 446 218 c 2
 391 266 l 1
 390 193 l 1
 390 120 l 1
 389 116 l 2
 385 102 375 91 364 86 c 0
 357 82 353 81 344 81 c 0
 338 81 336 81 332 82 c 0
 315 86 302 99 296 116 c 2
 295 120 l 1
 295 193 l 1
 294 266 l 1
 238 218 l 2
 208 192 181 169 179 168 c 0
 171 163 164 161 154 161 c 0
 148 161 146 162 141 163 c 0
 131 166 123 172 116 180 c 0
 110 189 107 198 107 209 c 0
 107 222 111 234 122 243 c 0
 124 246 158 275 197 308 c 2
 268 370 l 1
 197 431 l 2
 158 465 124 494 122 496 c 0
 111 506 107 517 107 531 c 0
 107 542 110 551 116 560 c 0
 123 568 131 574 141 577 c 0
 146 578 148 578 154 579 c 0
 164 579 171 576 179 572 c 0
 181 571 208 548 238 522 c 2
 294 474 l 1
 295 547 l 1
 295 620 l 1
 296 624 l 2
 301 641 315 654 331 658 c 0
EndSplineSet
EndChar

StartChar: plus
Encoding: 43 43 30
Width: 715
GlyphClass: 2
Flags: W
LayerCount: 2
Fore
SplineSet
334 605 m 0
 339 606 349 606 355 605 c 0
 357 604 361 602 364 601 c 0
 373 596 380 589 385 579 c 0
 390 569 390 576 390 492 c 2
 390 418 l 1
 463 418 l 2
 522 418 536 418 539 417 c 0
 562 413 578 393 578 370 c 0
 578 347 562 328 539 323 c 0
 536 322 522 322 463 322 c 2
 390 322 l 1
 390 248 l 2
 390 164 390 171 385 161 c 0
 380 151 373 144 364 139 c 0
 351 133 339 132 326 137 c 0
 319 139 315 142 309 148 c 0
 303 154 300 158 298 165 c 0
 295 174 295 172 295 250 c 2
 295 322 l 1
 220 322 l 1
 146 323 l 1
 142 324 l 2
 120 331 107 348 107 370 c 0
 107 392 120 410 142 416 c 1
 146 418 l 1
 220 418 l 1
 295 418 l 1
 295 490 l 2
 295 567 295 566 298 575 c 0
 300 581 303 585 309 592 c 0
 317 599 323 603 334 605 c 0
EndSplineSet
EndChar

StartChar: comma
Encoding: 44 44 31
Width: 715
GlyphClass: 2
Flags: W
LayerCount: 2
Fore
SplineSet
242 337 m 2
 344 337 l 2
 458 337 447 337 458 332 c 0
 467 327 474 320 479 311 c 0
 485 300 484 314 484 169 c 0
 484 24 485 38 479 27 c 0
 474 17 467 10 458 5 c 0
 445 -1 433 -2 420 3 c 0
 413 5 409 8 403 14 c 0
 397 21 394 25 392 31 c 0
 388 40 389 36 389 143 c 2
 389 242 l 1
 314 242 l 2
 231 242 238 242 227 247 c 0
 215 253 207 263 202 277 c 0
 200 283 200 296 202 302 c 0
 204 308 208 315 211 319 c 0
 218 328 231 335 242 337 c 2
EndSplineSet
EndChar

StartChar: hyphen
Encoding: 45 45 32
Width: 715
GlyphClass: 2
Flags: W
LayerCount: 2
Fore
SplineSet
146 417 m 0
 149 418 185 418 345 418 c 0
 530 418 540 418 543 417 c 0
 549 415 557 411 561 407 c 0
 567 403 571 398 574 391 c 0
 579 381 579 382 579 350 c 0
 579 318 579 319 574 309 c 0
 571 302 567 297 561 293 c 0
 557 289 549 285 543 283 c 0
 540 282 530 282 346 282 c 0
 200 282 151 282 148 283 c 0
 142 283 135 286 130 289 c 0
 126 291 116 301 113 306 c 0
 112 307 111 311 110 313 c 0
 107 321 107 324 107 350 c 0
 107 376 107 379 110 387 c 0
 112 393 115 397 121 404 c 0
 129 411 136 415 146 417 c 0
EndSplineSet
EndChar

StartChar: period
Encoding: 46 46 33
Width: 715
GlyphClass: 2
Flags: W
LayerCount: 2
Fore
SplineSet
287 296 m 0
 290 297 302 297 344 297 c 0
 405 297 400 297 411 292 c 0
 420 287 427 280 432 270 c 0
 437 260 437 263 437 209 c 0
 437 154 437 158 432 147 c 0
 427 137 420 130 411 126 c 0
 400 121 404 121 345 121 c 0
 289 120 288 120 279 123 c 0
 272 126 268 129 262 135 c 0
 254 143 250 150 248 160 c 0
 247 167 247 251 248 257 c 0
 250 268 254 275 262 283 c 0
 270 290 277 294 287 296 c 0
EndSplineSet
EndChar

StartChar: slash
Encoding: 47 47 34
Width: 715
GlyphClass: 2
Flags: W
LayerCount: 2
Fore
SplineSet
523 739 m 0
 534 741 546 738 556 733 c 0
 563 728 570 720 574 712 c 0
 580 700 580 685 574 673 c 0
 573 670 202 35 195 24 c 0
 186 8 169 -1 152 0 c 0
 130 2 113 16 108 37 c 0
 105 46 107 58 110 67 c 0
 112 70 482 704 490 716 c 0
 497 728 509 737 523 739 c 0
EndSplineSet
EndChar

StartChar: zero
Encoding: 48 48 35
Width: 715
GlyphClass: 2
Flags: HW
LayerCount: 2
Fore
SplineSet
191 740 m 2
 151.680793497 740 106 706 106 667 c 2
 102.259765625 96 l 2
 102.455078125 43.0302734375 149.272031006 0 202 0 c 2
 343 0 l 1
 483 0 l 2
 536.063120168 0.354194982281 579 50.40234375 579 96 c 2
 579 644 l 2
 579 696 546.79314171 736.629384717 507 737 c 2
 191 740 l 2
483 480.01061008 m 1
 483 96 l 1
 258.198757764 96 l 1
 483 480.01061008 l 1
202 253.961785868 m 1
 202 644 l 1
 448.277937914 644 l 1
 202 253.961785868 l 1
EndSplineSet
EndChar

StartChar: one
Encoding: 49 49 36
Width: 715
GlyphClass: 2
Flags: W
LayerCount: 2
Fore
SplineSet
147 739 m 0
 148 739 204 740 270 740 c 2
 390 740 l 1
 390 418 l 1
 390 96 l 1
 437 96 l 1
 483 96 l 1
 483 195 l 2
 483 301 483 297 486 306 c 2
 490 314 l 2
 492 318 502 328 507 331 c 0
 512 333 519 336 526 337 c 0
 536 338 548 335 557 330 c 0
 562 326 569 319 572 314 c 0
 575 309 577 302 578 296 c 0
 579 293 579 260 579 166 c 0
 579 23 579 38 574 27 c 0
 569 17 562 10 552 5 c 0
 549 4 545 2 543 1 c 0
 539 0 530 0 343 0 c 2
 147 0 l 1
 142 2 l 2
 120 8 107 26 107 48 c 0
 107 70 120 88 142 94 c 2
 146 95 l 1
 220 96 l 1
 295 96 l 1
 295 370 l 1
 295 644 l 1
 220 644 l 1
 146 644 l 1
 142 646 l 2
 128 650 116 660 111 672 c 0
 105 684 105 699 111 712 c 0
 117 726 131 736 147 739 c 0
EndSplineSet
EndChar

StartChar: two
Encoding: 50 50 37
Width: 715
GlyphClass: 2
Flags: W
LayerCount: 2
Fore
SplineSet
147 739 m 0
 148 739 226 740 320 740 c 0
 502 740 494 740 507 737 c 0
 545 727 572 696 578 656 c 0
 579 647 579 415 578 406 c 0
 575 383 565 364 549 349 c 0
 536 337 522 329 504 324 c 2
 497 323 l 1
 350 322 l 1
 203 322 l 2
 202 322 202 271 202 209 c 2
 202 96 l 1
 369 96 l 2
 509 96 536 96 539 95 c 0
 562 91 578 71 578 48 c 0
 578 25 562 5 539 1 c 0
 535 0 502 0 321 0 c 2
 107 0 l 1
 107 167 l 1
 107 334 l 1
 108 340 l 2
 113 361 122 377 137 391 c 0
 153 406 173 415 195 417 c 0
 200 418 252 418 343 418 c 2
 483 418 l 1
 483 531 l 1
 483 644 l 1
 315 644 l 1
 146 644 l 1
 142 646 l 2
 128 650 116 660 111 672 c 0
 105 684 105 699 111 712 c 0
 117 726 131 736 147 739 c 0
EndSplineSet
EndChar

StartChar: three
Encoding: 51 51 38
Width: 715
GlyphClass: 2
Flags: W
LayerCount: 2
Fore
SplineSet
147 739 m 0
 148 739 226 740 320 740 c 0
 502 740 494 740 507 737 c 0
 545 727 572 696 578 656 c 0
 579 647 579 462 578 450 c 0
 575 423 564 397 547 377 c 2
 543 371 l 2
 542 370 544 368 546 365 c 0
 556 354 565 337 570 323 c 0
 573 316 576 306 577 296 c 2
 579 288 l 1
 579 186 l 1
 579 84 l 1
 577 78 l 2
 574 61 567 47 557 35 c 0
 541 16 519 4 493 1 c 0
 489 0 440 0 317 0 c 2
 146 0 l 1
 142 2 l 1
 120 8 107 26 107 48 c 0
 107 70 120 87 142 94 c 2
 146 95 l 1
 315 96 l 1
 483 96 l 1
 483 189 l 2
 483 294 483 285 478 295 c 0
 474 305 466 313 456 317 c 0
 446 322 456 322 342 322 c 0
 227 323 238 322 227 327 c 0
 215 333 207 344 202 357 c 0
 201 361 201 363 201 370 c 0
 201 377 201 379 202 383 c 0
 207 397 215 407 227 413 c 0
 238 418 227 418 342 418 c 2
 444 418 l 1
 449 420 l 2
 465 426 477 437 482 454 c 0
 483 457 483 463 483 551 c 2
 483 644 l 1
 315 644 l 1
 146 644 l 1
 142 646 l 2
 128 650 116 660 111 672 c 0
 105 684 105 699 111 712 c 0
 117 726 131 736 147 739 c 0
EndSplineSet
EndChar

StartChar: four
Encoding: 52 52 39
Width: 715
GlyphClass: 2
Flags: W
LayerCount: 2
Fore
SplineSet
169 739 m 0
 174 740 185 740 190 738 c 0
 195 737 204 732 208 729 c 0
 215 723 222 714 225 704 c 0
 226 700 226 691 226 519 c 2
 226 337 l 1
 319 337 l 1
 412 337 l 1
 412 478 l 1
 412 620 l 1
 414 624 l 2
 419 641 432 654 449 658 c 0
 454 659 456 659 462 659 c 0
 470 659 474 658 481 654 c 0
 493 648 502 637 506 624 c 2
 508 620 l 1
 508 479 l 1
 508 337 l 1
 512 337 l 2
 529 335 544 324 551 309 c 0
 556 297 556 282 551 270 c 0
 544 254 529 244 512 242 c 2
 508 241 l 1
 508 140 l 2
 507 27 508 38 503 27 c 0
 498 17 491 10 481 5 c 0
 469 -1 457 -2 444 3 c 0
 437 5 433 8 427 14 c 0
 420 21 418 25 415 31 c 0
 412 40 412 36 412 143 c 2
 412 242 l 1
 271 242 l 1
 130 242 l 1
 130 469 l 2
 130 715 130 699 133 709 c 0
 136 715 138 719 145 725 c 0
 152 733 159 737 169 739 c 0
EndSplineSet
EndChar

StartChar: five
Encoding: 53 53 40
Width: 715
GlyphClass: 2
Flags: W
LayerCount: 2
Fore
SplineSet
201 531 m 1
 201 740 l 1
 368 740 l 2
 509 740 536 740 539 739 c 0
 562 735 578 715 578 692 c 0
 578 669 562 649 539 645 c 0
 536 644 516 644 416 644 c 2
 296 644 l 1
 296 531 l 1
 296 418 l 1
 393 418 l 2
 496 418 495 418 507 415 c 0
 545 405 574 373 578 333 c 0
 579 328 579 293 579 205 c 2
 579 83 l 1
 577 77 l 2
 573 61 567 47 557 35 c 0
 544 19 527 8 507 3 c 0
 495 0 498 0 375 0 c 0
 263 0 259 0 250 1 c 0
 240 2 232 4 223 7 c 0
 216 10 134 45 130 47 c 0
 122 52 115 60 111 68 c 0
 105 81 105 97 112 109 c 0
 122 131 147 141 169 134 c 0
 171 133 191 125 213 115 c 0
 234 106 254 98 256 97 c 0
 259 96 265 96 371 96 c 2
 483 96 l 1
 483 209 l 1
 483 322 l 1
 342 322 l 1
 201 322 l 1
 201 531 l 1
EndSplineSet
EndChar

StartChar: six
Encoding: 54 54 41
Width: 715
GlyphClass: 2
Flags: W
LayerCount: 2
Fore
SplineSet
146 739 m 0
 152 740 204 740 210 739 c 0
 220 737 229 732 236 725 c 0
 245 715 249 704 249 692 c 0
 249 668 231 648 208 644 c 1
 202 644 l 1
 202 491 l 1
 202 337 l 1
 371 337 l 2
 531 337 540 337 543 336 c 0
 549 334 557 330 561 327 c 0
 567 322 571 317 574 311 c 0
 579 300 579 314 579 169 c 0
 579 24 579 38 574 27 c 0
 571 20 567 15 561 11 c 0
 557 7 549 3 543 1 c 0
 540 0 530 0 346 0 c 0
 200 0 151 0 148 1 c 0
 142 2 135 4 130 7 c 0
 126 9 116 19 113 24 c 0
 111 28 109 34 107 40 c 0
 106 46 106 693 107 700 c 0
 110 711 113 717 121 725 c 0
 129 733 136 737 146 739 c 0
483 169 m 1
 483 242 l 1
 343 242 l 1
 202 242 l 1
 202 169 l 1
 202 96 l 1
 343 96 l 1
 483 96 l 1
 483 169 l 1
EndSplineSet
EndChar

StartChar: seven
Encoding: 55 55 42
Width: 715
GlyphClass: 2
Flags: W
LayerCount: 2
Fore
SplineSet
146 739 m 0
 149 739 190 740 364 740 c 2
 579 740 l 1
 579 593 l 2
 579 435 579 443 576 434 c 0
 574 428 571 423 566 418 c 0
 564 416 523 381 476 341 c 2
 390 267 l 1
 390 153 l 2
 390 25 390 38 385 27 c 0
 380 17 373 10 364 5 c 0
 351 -1 339 -2 326 3 c 0
 319 5 315 8 309 14 c 0
 303 21 300 25 298 31 c 0
 294 40 295 34 295 169 c 0
 295 303 294 297 298 306 c 0
 300 312 303 316 308 322 c 0
 310 324 350 359 397 399 c 2
 483 472 l 1
 483 558 l 1
 483 644 l 1
 342 644 l 1
 202 644 l 1
 201 642 l 2
 200 638 198 631 196 628 c 0
 193 622 185 614 180 611 c 0
 171 605 159 603 149 604 c 0
 138 606 128 610 120 619 c 0
 115 624 112 629 110 635 c 0
 107 643 107 646 107 672 c 0
 107 697 107 701 110 709 c 0
 112 715 115 719 121 725 c 0
 129 733 136 737 146 739 c 0
EndSplineSet
EndChar

StartChar: eight
Encoding: 56 56 43
Width: 715
GlyphClass: 2
Flags: W
LayerCount: 2
Fore
SplineSet
240 739 m 0
 243 739 263 740 344 740 c 0
 458 739 447 740 458 735 c 0
 467 730 474 723 479 713 c 0
 485 702 484 718 484 559 c 2
 484 418 l 1
 487 418 l 2
 491 418 501 416 507 415 c 0
 541 406 568 379 576 344 c 0
 579 332 579 332 579 205 c 2
 579 83 l 1
 577 77 l 2
 573 61 567 47 557 35 c 0
 541 16 519 4 493 1 c 0
 489 0 446 0 339 0 c 2
 190 0 l 1
 184 2 l 2
 161 7 143 18 128 35 c 0
 120 46 113 59 110 72 c 0
 107 84 107 81 107 209 c 0
 107 337 107 334 110 346 c 0
 120 386 154 415 195 418 c 2
 201 418 l 1
 201 557 l 2
 201 707 200 699 204 709 c 0
 206 715 209 719 215 725 c 0
 223 733 230 737 240 739 c 0
389 531 m 1
 389 644 l 1
 342 644 l 1
 296 644 l 1
 296 531 l 1
 296 418 l 1
 342 418 l 1
 389 418 l 1
 389 531 l 1
483 209 m 1
 483 322 l 1
 343 322 l 1
 202 322 l 1
 202 209 l 1
 202 96 l 1
 343 96 l 1
 483 96 l 1
 483 209 l 1
EndSplineSet
EndChar

StartChar: nine
Encoding: 57 57 44
Width: 715
GlyphClass: 2
Flags: W
LayerCount: 2
Fore
SplineSet
146 739 m 0
 149 739 185 740 345 740 c 0
 530 739 540 739 543 738 c 0
 549 737 557 732 561 729 c 0
 569 723 575 713 578 704 c 0
 579 700 579 686 579 370 c 0
 579 53 579 40 578 36 c 0
 577 34 575 30 574 27 c 0
 569 17 562 10 552 5 c 0
 542 0 543 0 510 0 c 0
 478 0 475 0 467 3 c 0
 461 5 456 8 451 13 c 0
 444 20 440 26 438 35 c 0
 434 46 436 59 441 69 c 0
 448 83 462 93 478 95 c 2
 483 96 l 1
 483 249 l 1
 483 402 l 1
 317 402 l 2
 137 402 147 402 138 406 c 0
 131 408 127 411 121 417 c 0
 113 425 110 431 107 442 c 0
 106 449 106 693 107 700 c 0
 110 711 113 717 121 725 c 0
 129 733 136 737 146 739 c 0
483 571 m 1
 483 644 l 1
 343 644 l 1
 202 644 l 1
 202 571 l 1
 202 498 l 1
 343 498 l 1
 483 498 l 1
 483 571 l 1
EndSplineSet
EndChar

StartChar: colon
Encoding: 58 58 45
Width: 715
GlyphClass: 2
Flags: W
LayerCount: 2
Fore
SplineSet
287 296 m 0
 290 297 302 297 344 297 c 0
 405 297 400 297 411 292 c 0
 420 287 427 280 432 270 c 0
 437 260 437 263 437 209 c 0
 437 154 437 158 432 147 c 0
 427 137 420 130 411 126 c 0
 400 121 404 121 345 121 c 0
 289 120 288 120 279 123 c 0
 272 126 268 129 262 135 c 0
 254 143 250 150 248 160 c 0
 247 167 247 251 248 257 c 0
 250 268 254 275 262 283 c 0
 270 290 277 294 287 296 c 0
287 618 m 0
 290 619 302 619 344 619 c 0
 405 619 400 619 411 614 c 0
 420 609 427 602 432 592 c 0
 437 582 437 585 437 531 c 0
 437 477 437 480 432 470 c 0
 427 460 420 453 411 448 c 0
 400 443 404 443 345 443 c 0
 289 443 288 443 279 446 c 0
 272 448 268 451 262 457 c 0
 254 465 250 472 248 482 c 0
 247 489 247 573 248 580 c 0
 250 590 254 597 262 605 c 0
 270 613 277 616 287 618 c 0
EndSplineSet
EndChar

StartChar: semicolon
Encoding: 59 59 46
Width: 715
GlyphClass: 2
Flags: W
LayerCount: 2
Fore
SplineSet
242 337 m 2
 344 337 l 2
 458 337 447 337 458 332 c 0
 467 327 474 320 479 311 c 0
 485 300 484 314 484 169 c 0
 484 24 485 38 479 27 c 0
 474 17 467 10 458 5 c 0
 445 -1 433 -2 420 3 c 0
 413 5 409 8 403 14 c 0
 397 21 394 25 392 31 c 0
 388 40 389 36 389 143 c 2
 389 242 l 1
 314 242 l 2
 231 242 238 242 227 247 c 0
 215 253 207 263 202 277 c 0
 200 283 200 296 202 302 c 0
 204 308 208 315 211 319 c 0
 218 328 231 335 242 337 c 2
240 658 m 0
 243 659 255 659 297 659 c 0
 358 659 353 659 364 654 c 0
 373 649 380 642 385 632 c 0
 390 622 390 625 390 571 c 0
 390 517 390 520 385 510 c 0
 380 500 373 493 364 488 c 0
 353 483 357 484 298 483 c 0
 242 483 241 483 232 486 c 0
 225 489 221 491 215 498 c 0
 207 506 203 512 201 523 c 0
 200 529 200 613 201 619 c 0
 203 630 207 637 215 645 c 0
 223 652 230 656 240 658 c 0
EndSplineSet
EndChar

StartChar: less
Encoding: 60 60 47
Width: 715
GlyphClass: 2
Flags: W
LayerCount: 2
Fore
SplineSet
521 658 m 0
 523 659 527 659 531 659 c 0
 539 659 545 658 552 654 c 0
 557 651 559 650 564 645 c 0
 570 640 571 638 573 633 c 0
 577 625 578 619 578 611 c 0
 578 596 571 582 559 573 c 0
 557 571 479 525 385 470 c 2
 215 370 l 1
 385 270 l 2
 479 215 557 168 559 167 c 0
 571 158 578 144 578 129 c 0
 578 120 577 115 573 107 c 0
 571 102 570 100 564 95 c 0
 559 90 557 88 552 86 c 0
 544 82 538 80 529 81 c 0
 520 81 516 82 508 86 c 0
 503 89 134 306 128 310 c 0
 124 313 116 321 113 325 c 0
 111 330 109 336 107 341 c 0
 106 348 106 392 107 398 c 0
 109 404 111 410 113 414 c 0
 116 419 124 427 128 430 c 0
 133 433 502 650 508 653 c 0
 512 656 516 657 521 658 c 0
EndSplineSet
EndChar

StartChar: equal
Encoding: 61 61 48
Width: 715
GlyphClass: 2
Flags: W
LayerCount: 2
Fore
SplineSet
147 337 m 2
 342 337 l 2
 551 337 539 338 548 334 c 0
 559 330 569 321 574 310 c 0
 587 281 569 247 538 242 c 1
 340 242 l 1
 146 242 l 1
 142 243 l 2
 128 248 116 257 111 270 c 0
 105 282 105 297 111 309 c 0
 117 324 131 334 147 337 c 2
147 538 m 2
 342 538 l 2
 551 539 539 539 548 535 c 0
 559 531 569 522 574 511 c 0
 587 482 569 448 538 443 c 1
 340 443 l 1
 146 443 l 1
 142 444 l 2
 128 449 116 458 111 471 c 0
 104 486 105 504 115 517 c 0
 122 528 134 536 147 538 c 2
EndSplineSet
EndChar

StartChar: greater
Encoding: 62 62 49
Width: 715
GlyphClass: 2
Flags: W
LayerCount: 2
Fore
SplineSet
145 658 m 0
 147 659 151 659 154 659 c 0
 162 659 168 658 174 655 c 0
 177 653 543 438 555 431 c 0
 561 428 569 420 572 414 c 0
 575 410 577 404 578 398 c 0
 579 392 579 348 578 341 c 0
 577 336 575 330 572 325 c 0
 569 320 561 312 555 309 c 0
 543 301 177 86 174 85 c 0
 167 82 161 81 152 81 c 0
 139 81 130 85 121 95 c 0
 115 100 114 102 112 107 c 0
 108 115 106 121 107 130 c 0
 107 137 107 139 109 143 c 0
 112 154 119 162 128 168 c 0
 130 170 209 216 302 270 c 2
 470 370 l 1
 302 469 l 2
 209 524 130 570 128 572 c 0
 119 578 112 586 109 596 c 0
 107 601 107 603 107 609 c 0
 106 619 108 625 112 633 c 0
 114 638 115 640 121 645 c 0
 125 650 128 652 132 653 c 0
 137 656 141 658 145 658 c 0
EndSplineSet
EndChar

StartChar: question
Encoding: 63 63 50
Width: 715
GlyphClass: 2
Flags: W
LayerCount: 2
Fore
SplineSet
242 95 m 0
 245 96 257 95 261 94 c 0
 278 90 290 77 295 60 c 0
 296 54 296 42 295 36 c 0
 290 18 278 6 260 1 c 0
 255 0 242 0 237 1 c 0
 225 5 215 12 209 21 c 0
 203 30 201 37 201 48 c 0
 201 56 202 60 205 67 c 0
 211 82 225 93 242 95 c 0
429 739 m 0
 440 741 454 738 463 732 c 0
 467 729 557 653 564 646 c 0
 570 640 575 632 577 624 c 2
 579 619 l 1
 579 571 l 1
 579 523 l 1
 577 518 l 2
 576 512 572 505 568 501 c 0
 566 499 518 457 431 382 c 2
 296 267 l 1
 296 236 l 2
 296 203 296 200 293 192 c 0
 291 186 288 182 283 176 c 0
 275 168 267 164 256 162 c 0
 231 157 206 175 201 200 c 0
 200 207 200 291 201 298 c 0
 203 308 207 315 215 323 c 0
 218 326 279 379 352 440 c 2
 483 553 l 1
 483 571 l 1
 483 589 l 1
 472 599 l 1
 449 618 l 1
 437 629 l 1
 310 521 l 2
 240 461 182 411 180 410 c 0
 166 401 149 400 133 408 c 0
 117 416 107 432 107 450 c 0
 107 464 112 475 122 485 c 0
 125 488 399 723 407 729 c 0
 413 734 422 738 429 739 c 0
EndSplineSet
EndChar

StartChar: at
Encoding: 64 64 51
Width: 715
GlyphClass: 2
Flags: W
LayerCount: 2
Fore
SplineSet
263 739 m 0
 264 739 301 740 345 739 c 0
 426 739 426 739 434 738 c 0
 472 732 503 716 529 690 c 0
 539 680 547 671 553 660 c 0
 566 640 573 620 577 595 c 2
 579 588 l 1
 579 361 l 2
 579 138 579 134 578 125 c 0
 574 92 559 63 535 40 c 0
 514 19 487 6 457 1 c 0
 447 0 427 0 417 1 c 0
 392 5 368 15 350 30 c 0
 347 32 344 34 343 35 c 2
 343 35 342 35 337 31 c 0
 318 16 294 5 269 1 c 0
 259 0 238 0 228 1 c 0
 198 6 172 19 150 40 c 0
 127 63 112 92 108 125 c 0
 107 133 107 138 107 229 c 0
 107 320 107 324 108 333 c 0
 112 365 125 392 147 415 c 0
 169 437 197 451 228 456 c 0
 235 457 240 458 293 458 c 2
 352 458 l 1
 357 456 l 2
 372 450 384 439 389 423 c 2
 390 418 l 1
 390 276 l 1
 391 133 l 1
 393 128 l 2
 395 121 397 118 401 113 c 0
 405 108 410 104 417 101 c 0
 424 97 428 96 437 96 c 0
 445 96 450 97 457 101 c 0
 469 106 476 115 481 128 c 2
 483 133 l 1
 483 354 l 1
 483 580 l 1
 479 607 460 631 434 640 c 0
 422 644 428 644 346 644 c 0
 295 644 270 644 267 643 c 0
 242 640 214 620 199 594 c 0
 195 586 191 580 188 577 c 0
 182 571 172 566 164 564 c 0
 159 563 149 563 144 565 c 0
 127 569 114 580 109 596 c 0
 107 601 107 603 107 609 c 0
 106 619 108 625 112 634 c 0
 117 642 127 658 134 667 c 0
 141 676 159 694 167 700 c 0
 197 723 227 735 263 739 c 0
294 248 m 1
 295 362 l 1
 269 362 l 2
 255 362 242 362 241 361 c 0
 239 361 236 360 233 359 c 0
 219 354 209 344 204 328 c 2
 203 324 l 1
 203 229 l 1
 203 133 l 1
 205 128 l 2
 210 114 219 104 232 99 c 0
 248 93 264 96 277 106 c 0
 284 112 290 119 293 129 c 2
 294 133 l 1
 294 248 l 1
EndSplineSet
EndChar

StartChar: A
Encoding: 65 65 52
Width: 715
GlyphClass: 2
Flags: W
LayerCount: 2
Fore
SplineSet
334 739 m 0
 339 740 349 740 355 738 c 0
 357 738 361 736 364 735 c 0
 373 730 381 723 385 713 c 0
 387 708 405 650 482 384 c 0
 534 206 577 59 578 57 c 2
 578 48 l 2
 578 16 548 -7 518 2 c 0
 504 6 491 17 486 31 c 0
 485 33 476 64 466 98 c 2
 448 161 l 1
 342 161 l 1
 237 161 l 1
 218 97 l 2
 208 62 199 31 198 30 c 0
 195 21 188 13 180 8 c 0
 153 -10 116 5 108 37 c 0
 106 43 106 53 108 59 c 0
 110 67 296 704 298 709 c 0
 300 715 303 719 309 725 c 0
 317 733 323 737 334 739 c 0
381 388 m 1
 343 520 l 2
 343 521 325 462 304 389 c 2
 265 257 l 1
 304 257 l 1
 381 257 l 1
 420 257 l 1
 381 388 l 1
EndSplineSet
EndChar

StartChar: B
Encoding: 66 66 53
Width: 715
GlyphClass: 2
Flags: W
LayerCount: 2
Fore
SplineSet
107 370 m 1
 107 740 l 1
 256 740 l 1
 405 739 l 1
 414 738 l 2
 458 731 493 713 523 683 c 0
 533 673 539 665 548 653 c 0
 565 627 575 599 578 567 c 0
 579 555 579 507 578 495 c 0
 573 450 554 410 523 379 c 2
 514 370 l 1
 523 361 l 2
 533 351 540 344 548 331 c 0
 563 308 573 282 577 252 c 0
 579 243 579 241 579 209 c 0
 579 177 579 175 577 166 c 0
 572 130 559 99 537 72 c 0
 530 64 515 49 507 42 c 0
 482 22 452 9 421 3 c 0
 404 0 408 0 252 0 c 2
 107 0 l 1
 107 370 l 1
406 642 m 2
 399 644 l 1
 301 644 l 1
 202 644 l 1
 202 531 l 1
 202 418 l 1
 301 418 l 1
 399 418 l 1
 406 420 l 2
 443 428 471 454 480 490 c 0
 483 501 483 508 483 535 c 0
 483 558 483 560 481 566 c 0
 475 596 457 620 430 634 c 0
 422 638 415 640 406 642 c 2
406 321 m 2
 399 322 l 1
 301 322 l 1
 202 322 l 1
 202 209 l 1
 202 96 l 1
 301 96 l 1
 399 96 l 1
 406 97 l 2
 436 104 460 122 473 148 c 0
 477 157 480 164 481 174 c 0
 483 180 483 182 483 209 c 0
 483 236 483 238 481 244 c 0
 475 275 457 299 430 312 c 0
 422 316 415 319 406 321 c 2
EndSplineSet
EndChar

StartChar: C
Encoding: 67 67 54
Width: 715
GlyphClass: 2
Flags: W
LayerCount: 2
Fore
SplineSet
336 739 m 0
 344 740 351 740 440 740 c 0
 519 740 536 740 539 739 c 0
 562 735 578 715 578 692 c 0
 578 673 567 655 549 648 c 0
 540 644 548 644 442 644 c 0
 352 644 346 644 342 643 c 0
 333 640 323 633 317 626 c 0
 315 623 308 609 287 567 c 0
 253 500 214 422 211 415 c 0
 208 409 205 397 204 389 c 0
 202 380 202 360 204 351 c 0
 205 343 208 331 211 325 c 0
 214 318 253 239 287 172 c 0
 308 131 315 117 317 114 c 0
 323 107 333 100 342 97 c 0
 346 96 352 96 442 96 c 0
 548 95 540 96 549 92 c 0
 567 85 578 67 578 48 c 0
 578 25 562 5 539 1 c 0
 532 0 350 0 339 1 c 0
 295 6 256 31 232 69 c 0
 228 75 129 274 124 285 c 0
 116 303 111 323 108 345 c 0
 107 357 107 383 108 395 c 0
 111 417 116 436 124 455 c 0
 129 466 228 664 232 671 c 0
 255 708 293 733 336 739 c 0
EndSplineSet
EndChar

StartChar: D
Encoding: 68 68 55
Width: 715
GlyphClass: 2
Flags: W
LayerCount: 2
Fore
SplineSet
147 739 m 0
 148 739 192 740 244 740 c 0
 325 740 339 740 346 739 c 0
 390 734 430 709 453 671 c 0
 454 668 479 620 508 563 c 0
 566 448 567 446 573 422 c 0
 577 404 579 391 579 370 c 0
 579 349 577 336 573 318 c 0
 567 294 566 292 508 177 c 0
 479 120 454 71 452 68 c 0
 445 55 432 42 421 32 c 0
 400 15 375 5 348 1 c 0
 339 0 335 0 242 0 c 2
 146 0 l 1
 142 2 l 1
 120 8 107 26 107 48 c 0
 107 70 120 88 142 94 c 0
 146 95 147 95 173 96 c 2
 201 96 l 1
 201 370 l 1
 201 644 l 1
 173 644 l 2
 147 644 146 644 142 646 c 0
 128 650 116 660 111 672 c 0
 105 684 105 699 111 712 c 0
 117 726 131 736 147 739 c 0
342 643 m 0
 339 643 335 644 318 644 c 2
 296 644 l 1
 296 370 l 1
 296 96 l 1
 318 96 l 2
 341 96 342 96 351 101 c 0
 357 104 364 109 368 114 c 0
 371 118 377 130 451 277 c 0
 471 316 474 324 477 331 c 0
 480 342 482 349 483 361 c 0
 484 377 482 392 477 409 c 0
 474 416 471 424 451 463 c 0
 377 610 371 622 368 626 c 0
 362 633 352 640 342 643 c 0
EndSplineSet
EndChar

StartChar: E
Encoding: 69 69 56
Width: 715
GlyphClass: 2
Flags: W
LayerCount: 2
Fore
SplineSet
107 370 m 1
 107 740 l 1
 321 740 l 2
 502 740 535 740 539 739 c 0
 562 735 578 715 578 692 c 0
 578 669 562 649 539 645 c 0
 536 644 509 644 369 644 c 2
 202 644 l 1
 202 531 l 1
 202 418 l 1
 277 418 l 2
 360 418 353 418 364 413 c 0
 373 408 380 401 385 391 c 0
 389 383 390 379 390 370 c 0
 390 361 389 357 385 349 c 0
 380 339 373 332 364 327 c 0
 353 322 360 323 277 322 c 2
 202 322 l 1
 202 209 l 1
 202 96 l 1
 369 96 l 2
 509 96 536 96 539 95 c 0
 562 91 578 71 578 48 c 0
 578 25 562 5 539 1 c 0
 535 0 502 0 321 0 c 2
 107 0 l 1
 107 370 l 1
EndSplineSet
EndChar

StartChar: F
Encoding: 70 70 57
Width: 715
GlyphClass: 2
Flags: W
LayerCount: 2
Fore
SplineSet
107 392 m 2
 107 740 l 1
 321 740 l 2
 502 740 535 740 539 739 c 0
 562 735 578 715 578 692 c 0
 578 669 562 649 539 645 c 0
 536 644 509 644 369 644 c 2
 202 644 l 1
 202 571 l 1
 202 498 l 1
 324 498 l 1
 445 498 l 1
 449 497 l 2
 465 492 477 481 482 465 c 0
 484 460 484 459 484 450 c 0
 484 442 484 441 482 436 c 0
 477 420 465 409 449 404 c 2
 445 403 l 1
 324 403 l 1
 202 402 l 1
 202 221 l 2
 202 48 202 39 201 36 c 0
 199 30 195 22 192 18 c 0
 187 12 182 8 176 5 c 0
 163 -1 151 -2 138 3 c 0
 132 5 127 8 121 14 c 0
 115 21 112 25 110 31 c 0
 106 41 107 15 107 392 c 2
EndSplineSet
EndChar

StartChar: G
Encoding: 71 71 58
Width: 715
GlyphClass: 2
Flags: W
LayerCount: 2
Fore
SplineSet
371 739 m 0
 379 740 386 740 457 740 c 0
 522 740 536 740 539 739 c 0
 562 735 578 715 578 692 c 0
 578 673 567 655 549 648 c 0
 540 644 546 644 460 644 c 0
 371 644 378 644 368 639 c 0
 357 634 360 637 288 544 c 0
 252 498 221 457 219 455 c 0
 212 445 207 433 204 419 c 2
 203 413 l 1
 203 274 l 2
 203 142 203 136 204 132 c 0
 208 118 217 107 230 101 c 0
 240 96 230 96 343 96 c 0
 455 96 446 96 456 101 c 0
 466 105 474 113 478 123 c 0
 483 133 483 129 483 188 c 2
 483 242 l 1
 434 242 l 2
 382 242 381 242 373 245 c 0
 366 247 362 250 356 256 c 0
 350 262 347 266 345 274 c 0
 341 284 341 294 344 305 c 0
 347 313 350 316 356 323 c 0
 362 329 366 332 373 334 c 0
 382 337 378 337 482 337 c 2
 579 337 l 1
 579 236 l 2
 579 140 579 135 578 126 c 0
 576 110 571 96 564 80 c 0
 543 37 501 7 453 1 c 0
 444 0 439 0 343 0 c 0
 234 0 235 0 220 3 c 0
 205 7 188 13 175 21 c 0
 138 45 113 84 108 128 c 0
 106 140 106 406 108 419 c 0
 111 451 122 482 139 507 c 2
 211 602 l 2
 259 662 281 691 286 695 c 0
 309 719 338 734 371 739 c 0
EndSplineSet
EndChar

StartChar: H
Encoding: 72 72 59
Width: 715
GlyphClass: 2
Flags: W
LayerCount: 2
Fore
SplineSet
146 739 m 0
 151 740 162 740 167 738 c 0
 169 738 173 736 176 735 c 0
 185 730 193 723 197 713 c 0
 203 702 202 718 202 559 c 2
 202 418 l 1
 343 418 l 1
 483 418 l 1
 483 557 l 2
 483 707 483 699 486 709 c 0
 489 715 491 719 498 725 c 0
 504 732 508 734 515 737 c 0
 528 741 540 741 552 735 c 0
 562 730 569 723 574 713 c 0
 575 710 577 706 578 704 c 0
 579 700 579 686 579 370 c 0
 579 53 579 40 578 36 c 0
 577 34 575 30 574 27 c 0
 569 17 562 10 552 5 c 0
 540 -1 528 -2 515 3 c 0
 508 5 504 8 498 14 c 0
 491 21 489 25 486 31 c 0
 483 40 483 33 483 183 c 2
 483 322 l 1
 343 322 l 1
 202 322 l 1
 202 181 l 2
 202 22 203 38 197 27 c 0
 193 17 185 10 176 5 c 0
 163 -1 151 -2 138 3 c 0
 132 5 127 8 121 14 c 0
 113 22 110 29 107 40 c 0
 106 46 106 693 107 700 c 0
 110 711 113 717 121 725 c 0
 129 733 135 737 146 739 c 0
EndSplineSet
EndChar

StartChar: I
Encoding: 73 73 60
Width: 715
GlyphClass: 2
Flags: W
LayerCount: 2
Fore
SplineSet
147 739 m 0
 148 739 236 740 342 740 c 0
 506 740 535 740 539 739 c 0
 562 735 578 715 578 692 c 0
 578 669 562 649 539 645 c 0
 536 644 522 644 463 644 c 2
 390 644 l 1
 390 370 l 1
 390 96 l 1
 463 96 l 2
 541 96 539 96 548 93 c 0
 559 88 569 79 574 68 c 0
 587 39 569 5 538 1 c 0
 535 0 485 0 340 0 c 2
 146 0 l 1
 142 2 l 1
 120 8 107 26 107 48 c 0
 107 70 120 88 142 94 c 2
 146 95 l 1
 220 96 l 1
 295 96 l 1
 295 370 l 1
 295 644 l 1
 220 644 l 1
 146 644 l 1
 142 646 l 2
 128 650 116 660 111 672 c 0
 105 684 105 699 111 712 c 0
 117 726 131 736 147 739 c 0
EndSplineSet
EndChar

StartChar: J
Encoding: 74 74 61
Width: 715
GlyphClass: 2
Flags: W
LayerCount: 2
Fore
SplineSet
475 739 m 0
 480 740 490 740 495 738 c 0
 501 737 509 732 514 729 c 0
 521 723 527 714 530 704 c 0
 531 700 531 688 531 418 c 0
 531 140 531 136 530 127 c 0
 529 116 526 104 523 95 c 0
 504 43 458 7 403 1 c 0
 392 0 293 0 282 1 c 0
 215 9 162 61 155 128 c 0
 153 139 153 291 154 298 c 0
 156 303 158 309 160 314 c 0
 163 318 173 328 177 331 c 0
 182 333 190 336 196 337 c 0
 206 338 218 335 227 330 c 0
 235 325 243 315 246 307 c 0
 249 298 249 304 249 216 c 0
 250 126 249 133 254 123 c 0
 260 111 271 101 285 97 c 2
 289 96 l 1
 342 96 l 2
 402 96 398 96 408 101 c 0
 421 107 430 118 434 132 c 0
 435 135 435 148 436 417 c 0
 436 679 436 700 437 703 c 0
 440 714 444 720 451 727 c 0
 458 733 465 737 475 739 c 0
EndSplineSet
EndChar

StartChar: K
Encoding: 75 75 62
Width: 715
GlyphClass: 2
Flags: W
LayerCount: 2
Fore
SplineSet
146 739 m 0
 151 740 162 740 167 738 c 0
 169 738 173 736 176 735 c 0
 185 730 192 723 197 713 c 0
 203 702 202 714 202 587 c 2
 203 474 l 1
 351 601 l 2
 432 671 501 729 503 730 c 0
 516 740 532 742 547 737 c 0
 559 732 569 723 574 712 c 0
 583 693 579 671 563 657 c 0
 562 655 485 590 394 512 c 2
 228 370 l 1
 394 228 l 2
 485 150 562 84 563 83 c 0
 573 73 578 61 578 48 c 0
 578 34 573 22 563 13 c 0
 546 -3 522 -4 503 9 c 0
 501 11 432 69 351 139 c 2
 203 265 l 1
 202 152 l 2
 202 25 203 38 197 27 c 0
 192 17 185 10 176 5 c 0
 163 -1 151 -2 138 3 c 0
 132 5 127 8 121 14 c 0
 113 22 110 29 107 40 c 0
 106 46 106 693 107 700 c 0
 110 711 113 717 121 725 c 0
 129 733 135 737 146 739 c 0
EndSplineSet
EndChar

StartChar: L
Encoding: 76 76 63
Width: 715
GlyphClass: 2
Flags: W
LayerCount: 2
Fore
SplineSet
146 739 m 0
 151 740 162 740 167 738 c 0
 172 737 180 732 185 729 c 0
 192 723 198 714 201 704 c 0
 202 700 202 687 202 398 c 2
 202 96 l 1
 369 96 l 2
 509 96 536 96 539 95 c 0
 562 91 578 71 578 48 c 0
 578 25 562 5 539 1 c 0
 535 0 502 0 321 0 c 2
 107 0 l 1
 107 348 l 2
 107 725 106 699 110 709 c 0
 112 715 115 719 121 725 c 0
 129 733 135 737 146 739 c 0
EndSplineSet
EndChar

StartChar: M
Encoding: 77 77 64
Width: 715
GlyphClass: 2
Flags: W
LayerCount: 2
Fore
SplineSet
107 392 m 2
 107 740 l 1
 166 740 l 1
 226 740 l 1
 233 731 l 1
 288 651 l 1
 340 577 l 1
 343 574 l 1
 401 657 l 1
 459 740 l 1
 519 740 l 1
 579 740 l 1
 579 390 l 2
 579 54 579 39 578 36 c 0
 573 22 564 11 552 5 c 0
 540 -1 528 -2 515 3 c 0
 509 5 504 8 499 13 c 0
 491 20 488 26 484 37 c 0
 484 40 483 61 483 324 c 2
 483 607 l 1
 437 541 l 1
 390 475 l 1
 390 461 l 2
 390 442 389 435 384 426 c 0
 381 421 373 414 368 410 c 0
 359 404 347 402 337 403 c 0
 331 404 323 406 318 409 c 0
 310 414 301 425 298 432 c 0
 295 440 295 442 295 459 c 2
 294 476 l 1
 248 541 l 1
 203 606 l 1
 202 323 l 2
 202 52 202 39 201 36 c 0
 197 22 188 11 176 5 c 0
 163 -1 151 -2 138 3 c 0
 132 5 127 8 121 14 c 0
 115 21 112 25 110 31 c 0
 106 41 107 15 107 392 c 2
EndSplineSet
EndChar

StartChar: N
Encoding: 78 78 65
Width: 715
GlyphClass: 2
Flags: W
LayerCount: 2
Fore
SplineSet
107 392 m 2
 107 740 l 1
 170 740 l 1
 233 739 l 1
 239 725 l 1
 364 440 l 1
 483 170 l 1
 483 435 l 2
 483 680 484 700 484 703 c 0
 488 714 491 720 499 727 c 0
 504 732 509 735 515 737 c 0
 528 741 540 741 552 735 c 0
 564 729 573 718 578 704 c 0
 579 700 579 685 579 350 c 2
 579 0 l 1
 516 0 l 1
 452 0 l 1
 327 285 l 1
 203 569 l 1
 202 304 l 2
 202 52 202 39 201 36 c 0
 197 22 188 11 176 5 c 0
 163 -1 151 -2 138 3 c 0
 132 5 127 8 121 14 c 0
 115 21 112 25 110 31 c 0
 106 41 107 15 107 392 c 2
EndSplineSet
EndChar

StartChar: O
Encoding: 79 79 66
Width: 715
GlyphClass: 2
Flags: W
LayerCount: 2
Fore
SplineSet
328 739 m 0
 331 739 337 740 342 740 c 0
 385 740 427 717 449 679 c 2
 507 564 l 2
 548 483 562 454 565 447 c 0
 582 402 584 355 570 309 c 0
 565 292 563 287 507 175 c 0
 477 116 451 64 449 61 c 0
 444 53 439 45 432 38 c 0
 394 -1 336 -11 288 13 c 0
 267 23 250 39 237 59 c 0
 233 66 126 279 122 289 c 0
 115 306 111 324 108 345 c 0
 107 357 107 383 108 395 c 0
 111 415 115 433 122 451 c 0
 126 461 233 674 237 681 c 0
 253 706 276 724 304 733 c 0
 312 736 318 738 328 739 c 0
349 643 m 0
 339 645 329 643 322 635 c 0
 319 632 315 626 266 526 c 0
 237 467 212 417 211 414 c 0
 208 408 205 397 204 389 c 0
 202 380 202 359 204 351 c 0
 205 343 208 332 211 326 c 0
 212 323 237 272 266 214 c 0
 318 110 319 108 322 104 c 0
 326 100 330 98 336 97 c 0
 346 94 355 97 363 104 c 0
 366 108 367 110 396 168 c 2
 450 276 l 2
 471 316 474 324 477 331 c 0
 482 347 484 363 483 379 c 0
 482 390 480 398 477 409 c 0
 474 416 471 424 450 464 c 2
 396 572 l 2
 367 630 366 632 363 635 c 0
 359 639 355 642 349 643 c 0
EndSplineSet
EndChar

StartChar: P
Encoding: 80 80 67
Width: 715
GlyphClass: 2
Flags: W
LayerCount: 2
Fore
SplineSet
107 392 m 2
 107 740 l 1
 278 740 l 2
 469 739 452 740 470 735 c 0
 528 721 571 671 578 612 c 0
 579 600 579 422 578 410 c 0
 570 344 519 292 453 283 c 0
 444 282 439 282 323 282 c 2
 202 282 l 1
 202 161 l 2
 202 24 203 38 197 27 c 0
 192 17 185 10 176 5 c 0
 163 -1 151 -2 138 3 c 0
 132 5 127 8 121 14 c 0
 115 21 112 25 110 31 c 0
 106 41 107 15 107 392 c 2
447 643 m 0
 444 644 437 644 323 644 c 2
 202 644 l 1
 202 511 l 1
 202 378 l 1
 323 378 l 2
 458 378 445 378 456 383 c 0
 466 387 474 395 478 405 c 0
 483 415 483 406 483 511 c 2
 483 604 l 1
 481 609 l 2
 477 625 464 638 447 643 c 0
EndSplineSet
EndChar

StartChar: Q
Encoding: 81 81 68
Width: 715
GlyphClass: 2
Flags: W
LayerCount: 2
Fore
SplineSet
448 739 m 0
 475 742 504 736 526 721 c 0
 555 702 574 672 578 637 c 0
 579 631 579 615 579 488 c 0
 579 336 579 340 576 322 c 0
 569 285 551 250 525 223 c 0
 521 218 503 203 482 185 c 2
 447 155 l 2
 446 154 451 143 465 107 c 2
 469 96 l 1
 502 96 l 2
 528 96 536 96 539 95 c 0
 562 91 578 71 578 48 c 0
 578 25 562 5 539 1 c 0
 536 0 523 0 469 0 c 2
 404 0 l 1
 387 44 l 1
 369 88 l 1
 332 56 l 2
 307 35 293 23 288 20 c 0
 253 -4 208 -6 170 13 c 0
 141 28 119 55 110 88 c 0
 106 103 107 96 107 256 c 2
 107 402 l 1
 109 411 l 2
 114 447 127 477 149 504 c 0
 160 519 162 520 341 673 c 0
 396 720 391 716 399 721 c 0
 413 730 431 737 448 739 c 0
471 642 m 0
 465 645 457 644 452 641 c 0
 450 640 379 580 257 475 c 0
 240 461 229 451 226 448 c 0
 215 435 208 420 204 402 c 2
 203 395 l 1
 203 253 l 1
 203 111 l 1
 204 108 l 2
 206 103 210 100 214 98 c 0
 217 96 219 96 223 96 c 0
 228 96 229 96 232 98 c 0
 234 99 251 113 282 140 c 2
 331 181 l 1
 333 183 l 1
 315 228 l 2
 305 254 297 276 296 278 c 0
 293 289 295 303 301 314 c 0
 304 318 314 328 318 331 c 0
 323 333 331 336 337 337 c 0
 347 338 359 335 368 330 c 0
 373 326 381 319 384 314 c 0
 385 312 389 302 393 291 c 2
 405 260 l 1
 410 249 l 1
 430 266 l 2
 442 276 453 286 456 289 c 0
 469 302 478 319 481 338 c 2
 483 345 l 1
 483 487 l 1
 483 629 l 1
 481 632 l 2
 479 636 475 640 471 642 c 0
EndSplineSet
EndChar

StartChar: R
Encoding: 82 82 69
Width: 715
GlyphClass: 2
Flags: W
LayerCount: 2
Fore
SplineSet
107 392 m 2
 107 740 l 1
 278 740 l 2
 469 739 452 740 470 735 c 0
 528 721 571 671 578 611 c 0
 579 605 579 597 579 567 c 0
 578 528 578 527 574 511 c 0
 562 460 521 420 470 407 c 0
 455 403 452 403 414 402 c 2
 379 402 l 1
 477 235 l 2
 530 144 575 67 575 65 c 0
 582 46 578 26 563 13 c 0
 544 -5 514 -4 495 16 c 0
 493 18 490 23 488 27 c 2
 376 218 l 1
 268 402 l 1
 235 402 l 1
 202 402 l 1
 202 221 l 2
 202 48 202 39 201 36 c 0
 199 30 195 22 192 18 c 0
 187 12 182 8 176 5 c 0
 163 -1 151 -2 138 3 c 0
 132 5 127 8 121 14 c 0
 115 21 112 25 110 31 c 0
 106 41 107 15 107 392 c 2
447 643 m 0
 444 644 437 644 323 644 c 2
 202 644 l 1
 202 571 l 1
 202 498 l 1
 323 498 l 2
 458 499 445 498 456 503 c 0
 466 508 474 516 478 526 c 0
 483 535 483 534 483 571 c 0
 483 608 483 607 478 617 c 0
 472 629 461 638 447 643 c 0
EndSplineSet
EndChar

StartChar: S
Encoding: 83 83 70
Width: 715
GlyphClass: 2
Flags: W
LayerCount: 2
Fore
SplineSet
200 739 m 0
 205 739 230 740 332 740 c 0
 442 740 459 740 465 739 c 0
 495 735 521 722 542 701 c 0
 563 680 575 653 578 624 c 0
 581 603 576 588 564 577 c 0
 554 568 544 564 531 564 c 0
 525 564 523 564 518 565 c 0
 509 568 503 572 497 578 c 0
 488 587 484 597 483 611 c 0
 483 617 482 620 481 623 c 0
 478 631 470 639 461 642 c 2
 457 644 l 1
 334 644 l 1
 210 644 l 1
 208 642 l 2
 203 638 201 632 203 627 c 0
 204 626 284 523 381 398 c 0
 479 273 560 169 561 167 c 0
 570 153 576 138 578 121 c 0
 585 68 550 17 498 4 c 0
 483 0 490 0 352 0 c 0
 243 0 226 0 220 1 c 0
 190 5 164 18 143 39 c 0
 123 60 110 87 107 116 c 0
 105 136 109 149 120 161 c 0
 126 168 133 172 142 174 c 0
 146 176 149 176 154 176 c 0
 167 176 178 172 187 163 c 0
 197 154 201 144 202 129 c 0
 203 123 203 120 204 117 c 0
 208 108 215 101 224 98 c 2
 228 96 l 1
 351 96 l 1
 473 96 l 1
 476 97 l 2
 482 100 485 107 482 112 c 0
 482 113 402 217 304 342 c 0
 207 467 126 571 124 573 c 0
 101 609 101 656 125 691 c 0
 142 717 170 735 200 739 c 0
EndSplineSet
EndChar

StartChar: T
Encoding: 84 84 71
Width: 715
GlyphClass: 2
Flags: W
LayerCount: 2
Fore
SplineSet
107 674 m 2
 107 740 l 1
 343 740 l 1
 579 740 l 1
 579 674 l 2
 579 601 579 603 575 594 c 0
 571 582 561 572 549 567 c 0
 542 564 538 564 531 564 c 0
 523 564 516 565 510 568 c 0
 499 574 491 583 486 594 c 0
 484 602 483 606 483 626 c 2
 483 644 l 1
 437 644 l 1
 390 644 l 1
 390 342 l 2
 390 53 390 39 389 36 c 0
 385 22 376 11 364 5 c 0
 351 -1 339 -2 326 3 c 0
 319 5 315 8 309 14 c 0
 303 21 300 25 298 31 c 0
 294 41 295 19 295 344 c 2
 295 644 l 1
 248 644 l 1
 202 644 l 1
 202 626 l 2
 202 605 202 602 199 594 c 0
 194 582 184 572 172 567 c 0
 166 564 162 564 154 564 c 0
 147 564 140 565 134 568 c 0
 123 574 114 583 110 594 c 0
 107 603 107 602 107 674 c 2
EndSplineSet
EndChar

StartChar: U
Encoding: 85 85 72
Width: 715
GlyphClass: 2
Flags: W
LayerCount: 2
Fore
SplineSet
146 739 m 0
 151 740 162 740 167 738 c 0
 172 737 180 732 185 729 c 0
 192 723 198 714 201 704 c 0
 202 700 202 687 202 418 c 0
 203 148 203 135 204 132 c 0
 208 118 217 107 230 101 c 0
 240 96 230 96 343 96 c 0
 455 96 446 96 456 101 c 0
 468 107 478 118 482 132 c 0
 483 135 483 148 483 417 c 0
 483 679 484 700 484 703 c 0
 488 714 491 720 499 727 c 0
 504 732 509 735 515 737 c 0
 528 741 540 741 552 735 c 0
 564 729 573 718 578 704 c 0
 579 700 579 688 579 418 c 0
 579 140 579 136 578 127 c 0
 576 110 571 96 564 80 c 0
 543 37 501 7 453 1 c 0
 444 0 439 0 343 0 c 0
 257 0 241 0 235 1 c 0
 192 6 154 29 130 66 c 0
 121 79 114 97 110 113 c 0
 106 129 107 110 107 416 c 0
 107 719 106 699 110 709 c 0
 112 715 115 719 121 725 c 0
 129 733 135 737 146 739 c 0
EndSplineSet
EndChar

StartChar: V
Encoding: 86 86 73
Width: 715
GlyphClass: 2
Flags: W
LayerCount: 2
Fore
SplineSet
146 739 m 0
 151 740 162 740 167 738 c 0
 169 738 173 736 176 735 c 0
 185 730 192 723 197 713 c 0
 202 702 202 710 202 620 c 2
 203 539 l 1
 273 360 l 1
 343 181 l 1
 413 361 l 1
 483 540 l 1
 483 618 l 2
 483 702 483 700 486 709 c 0
 489 715 491 719 498 725 c 0
 504 732 508 734 515 737 c 0
 528 741 540 741 552 735 c 0
 562 730 569 723 574 713 c 0
 579 702 579 711 579 611 c 2
 579 522 l 1
 483 275 l 2
 430 140 386 28 385 26 c 0
 383 22 379 17 375 13 c 0
 352 -9 314 -2 299 28 c 0
 298 30 256 138 205 269 c 2
 110 514 l 1
 107 522 l 1
 107 609 l 2
 107 702 107 700 110 709 c 0
 112 715 115 719 121 725 c 0
 129 733 135 737 146 739 c 0
EndSplineSet
EndChar

StartChar: W
Encoding: 87 87 74
Width: 715
GlyphClass: 2
Flags: W
LayerCount: 2
Fore
SplineSet
146 739 m 0
 151 740 162 740 167 738 c 0
 172 737 180 732 185 729 c 0
 192 723 198 714 201 704 c 0
 202 700 202 688 202 421 c 2
 202 141 l 1
 216 119 l 1
 229 96 l 1
 249 96 l 1
 268 96 l 1
 281 118 l 1
 295 141 l 1
 295 300 l 2
 295 479 294 460 300 471 c 0
 306 484 316 493 330 497 c 0
 334 498 336 498 342 498 c 0
 352 498 356 497 364 493 c 0
 373 488 380 481 385 471 c 0
 391 460 390 479 390 300 c 2
 391 141 l 1
 404 119 l 1
 417 96 l 1
 437 96 l 1
 456 96 l 1
 470 119 l 1
 483 142 l 1
 483 419 l 2
 483 719 483 699 486 709 c 0
 489 715 491 719 498 725 c 0
 504 732 508 734 515 737 c 0
 528 741 540 741 552 735 c 0
 564 729 573 718 578 704 c 0
 579 700 579 687 579 408 c 2
 579 115 l 1
 553 71 l 2
 538 46 525 24 524 22 c 0
 521 17 513 9 508 7 c 0
 504 4 497 2 491 1 c 0
 488 0 472 0 434 0 c 0
 382 0 382 0 377 2 c 0
 364 6 355 13 347 26 c 0
 345 30 343 33 343 33 c 1
 338 26 l 2
 331 13 322 6 308 2 c 0
 304 0 304 0 252 0 c 0
 213 0 198 0 195 1 c 0
 189 2 182 4 177 7 c 0
 173 9 164 18 161 23 c 0
 159 24 147 46 132 71 c 2
 106 115 l 1
 106 403 l 2
 106 719 106 697 110 708 c 0
 112 715 115 719 121 725 c 0
 129 733 135 737 146 739 c 0
EndSplineSet
EndChar

StartChar: X
Encoding: 88 88 75
Width: 715
GlyphClass: 2
Flags: W
LayerCount: 2
Fore
SplineSet
147 739 m 0
 157 741 170 738 179 733 c 0
 184 730 190 723 194 718 c 0
 195 716 229 658 270 589 c 2
 342 465 l 1
 344 467 l 1
 416 590 l 1
 490 716 l 2
 506 742 541 748 563 727 c 0
 570 720 575 713 577 703 c 0
 580 694 579 682 574 673 c 0
 574 671 534 602 486 520 c 2
 398 370 l 1
 486 220 l 2
 534 137 574 69 574 67 c 0
 579 58 580 46 577 36 c 0
 575 27 570 19 563 13 c 0
 541 -8 506 -3 490 24 c 2
 416 149 l 1
 344 273 l 1
 342 275 l 1
 270 150 l 2
 229 82 195 24 194 21 c 0
 188 13 180 6 171 3 c 0
 144 -7 115 9 108 37 c 0
 105 46 107 58 110 67 c 0
 111 69 151 137 199 220 c 2
 287 370 l 1
 199 520 l 2
 151 602 111 671 110 673 c 0
 105 685 105 700 111 712 c 0
 117 726 131 736 147 739 c 0
EndSplineSet
EndChar

StartChar: Y
Encoding: 89 89 76
Width: 715
GlyphClass: 2
Flags: W
LayerCount: 2
Fore
SplineSet
146 739 m 0
 151 740 162 740 167 738 c 0
 169 738 173 736 176 735 c 0
 185 730 192 723 197 713 c 0
 202 703 202 705 202 664 c 2
 203 627 l 1
 273 538 l 2
 330 464 343 448 343 449 c 1
 344 449 375 490 414 539 c 2
 483 628 l 1
 483 662 l 2
 483 698 483 700 486 709 c 0
 489 715 491 719 498 725 c 0
 504 732 508 734 515 737 c 0
 528 741 540 741 552 735 c 0
 562 730 569 723 574 713 c 0
 579 703 579 707 579 648 c 2
 579 595 l 1
 555 564 l 1
 461 443 l 1
 391 354 l 1
 390 197 l 2
 390 20 391 38 385 27 c 0
 380 17 373 10 364 5 c 0
 351 -1 339 -2 326 3 c 0
 319 5 315 8 309 14 c 0
 303 21 300 25 298 31 c 0
 294 40 295 32 295 199 c 2
 295 353 l 1
 200 474 l 1
 106 595 l 1
 106 643 l 2
 106 695 106 698 110 708 c 0
 112 715 115 719 121 725 c 0
 129 733 135 737 146 739 c 0
EndSplineSet
EndChar

StartChar: Z
Encoding: 90 90 77
Width: 715
GlyphClass: 2
Flags: W
LayerCount: 2
Fore
SplineSet
147 739 m 0
 148 739 246 740 364 740 c 2
 579 740 l 1
 579 710 l 1
 579 679 l 1
 570 664 l 1
 238 96 l 1
 386 96 l 2
 512 96 536 96 539 95 c 0
 562 91 578 71 578 48 c 0
 578 25 562 5 539 1 c 0
 535 0 502 0 321 0 c 2
 107 0 l 1
 107 31 l 1
 107 61 l 1
 116 77 l 2
 188 200 447 643 447 644 c 1
 297 644 l 1
 146 644 l 1
 142 646 l 2
 128 650 116 660 111 672 c 0
 105 684 105 699 111 712 c 0
 117 726 131 736 147 739 c 0
EndSplineSet
EndChar

StartChar: bracketleft
Encoding: 91 91 78
Width: 715
GlyphClass: 2
Flags: W
LayerCount: 2
Fore
SplineSet
146 739 m 0
 152 740 533 740 539 739 c 0
 562 735 578 715 578 692 c 0
 578 669 562 649 539 645 c 0
 536 644 519 644 439 644 c 2
 343 644 l 1
 343 370 l 1
 343 96 l 1
 439 96 l 2
 519 96 536 96 539 95 c 0
 562 91 578 71 578 48 c 0
 578 25 562 5 539 1 c 0
 533 0 153 0 146 1 c 0
 136 3 129 6 121 14 c 0
 113 22 110 29 107 40 c 0
 106 46 106 693 107 700 c 0
 110 711 113 717 121 725 c 0
 129 733 136 737 146 739 c 0
248 370 m 1
 248 644 l 1
 225 644 l 1
 202 644 l 1
 202 370 l 1
 202 96 l 1
 225 96 l 1
 248 96 l 1
 248 370 l 1
EndSplineSet
EndChar

StartChar: backslash
Encoding: 92 92 79
Width: 715
GlyphClass: 2
Flags: W
LayerCount: 2
Fore
SplineSet
147 739 m 0
 158 741 171 738 181 732 c 0
 186 728 192 722 195 716 c 0
 202 705 573 70 574 67 c 0
 579 58 580 46 577 36 c 0
 575 27 570 19 563 13 c 0
 541 -8 506 -3 490 24 c 0
 482 36 112 670 110 673 c 0
 105 685 105 700 111 712 c 0
 117 726 131 736 147 739 c 0
EndSplineSet
EndChar

StartChar: bracketright
Encoding: 93 93 80
Width: 715
GlyphClass: 2
Flags: W
LayerCount: 2
Fore
SplineSet
147 739 m 0
 148 739 237 740 345 740 c 0
 530 739 540 739 543 738 c 0
 549 737 557 732 561 729 c 0
 569 723 575 713 578 704 c 0
 579 700 579 686 579 370 c 0
 579 53 579 40 578 36 c 0
 576 30 572 22 568 18 c 0
 562 10 552 4 543 1 c 0
 539 0 530 0 343 0 c 2
 147 0 l 1
 142 2 l 2
 120 8 107 26 107 48 c 0
 107 70 120 87 142 94 c 2
 146 95 l 1
 244 96 l 1
 342 96 l 1
 342 370 l 1
 342 644 l 1
 244 644 l 1
 146 644 l 1
 142 646 l 2
 128 650 116 660 111 672 c 0
 105 684 105 699 111 712 c 0
 117 726 131 736 147 739 c 0
483 370 m 1
 483 644 l 1
 460 644 l 1
 437 644 l 1
 437 370 l 1
 437 96 l 1
 460 96 l 1
 483 96 l 1
 483 370 l 1
EndSplineSet
EndChar

StartChar: asciicircum
Encoding: 94 94 81
Width: 715
GlyphClass: 2
Flags: W
LayerCount: 2
Fore
SplineSet
335 578 m 0
 340 579 344 579 350 578 c 0
 361 576 369 572 377 563 c 0
 380 561 382 557 384 555 c 0
 385 552 567 202 572 192 c 0
 578 182 579 173 578 163 c 0
 576 141 558 124 536 121 c 0
 522 119 507 125 497 135 c 0
 494 138 480 158 435 226 c 2
 360 339 l 1
 342 364 l 1
 267 252 l 2
 208 163 191 138 188 135 c 0
 178 125 163 119 149 121 c 0
 130 123 115 136 109 153 c 0
 107 158 107 160 107 167 c 0
 106 176 108 182 112 190 c 0
 118 203 300 554 303 557 c 0
 307 563 314 570 320 573 c 0
 326 576 329 577 335 578 c 0
EndSplineSet
EndChar

StartChar: underscore
Encoding: 95 95 82
Width: 715
GlyphClass: 2
Flags: W
LayerCount: 2
Fore
SplineSet
147 -1 m 0
 148 0 236 0 342 0 c 0
 551 0 539 0 548 -3 c 0
 559 -7 569 -17 574 -28 c 0
 587 -56 569 -90 538 -95 c 0
 535 -96 485 -96 340 -96 c 2
 146 -95 l 1
 142 -94 l 2
 128 -90 116 -80 111 -68 c 0
 105 -55 105 -40 111 -28 c 0
 117 -14 131 -3 147 -1 c 0
EndSplineSet
EndChar

StartChar: grave
Encoding: 96 96 83
Width: 715
GlyphClass: 2
Flags: W
LayerCount: 2
Fore
SplineSet
194 739 m 0
 195 739 220 740 248 740 c 0
 303 740 303 740 312 737 c 0
 318 734 322 732 328 727 c 0
 331 724 359 688 427 601 c 0
 479 534 522 478 524 477 c 2
 528 469 l 2
 537 445 527 419 505 408 c 0
 497 404 492 403 483 403 c 0
 472 403 465 405 456 412 c 0
 454 413 388 469 310 536 c 0
 215 617 167 659 164 662 c 0
 153 676 150 696 159 713 c 0
 165 727 179 737 194 739 c 0
EndSplineSet
EndChar

StartChar: a
Encoding: 97 97 84
Width: 715
GlyphClass: 2
Flags: W
LayerCount: 2
Fore
SplineSet
242 538 m 2
 342 538 l 2
 450 538 442 538 458 534 c 0
 517 520 559 471 566 411 c 0
 566 407 568 350 571 283 c 2
 577 104 l 2
 578 65 579 45 578 42 c 0
 577 31 572 21 563 13 c 0
 537 -12 493 1 484 37 c 0
 484 39 483 42 483 43 c 2
 483 46 l 1
 482 46 467 37 448 26 c 0
 412 6 408 3 401 1 c 0
 397 0 393 0 316 0 c 0
 226 0 231 0 214 4 c 0
 188 11 165 24 147 43 c 0
 125 66 112 93 108 125 c 0
 107 133 107 137 107 169 c 0
 107 200 107 205 108 213 c 0
 112 244 125 272 147 294 c 0
 168 316 195 330 227 336 c 2
 235 337 l 1
 340 337 l 1
 445 337 l 1
 453 336 l 2
 458 335 464 334 467 333 c 0
 470 332 473 331 473 332 c 2
 473 332 472 347 472 366 c 0
 471 390 470 402 470 405 c 0
 466 422 455 435 439 440 c 2
 433 442 l 1
 336 443 l 2
 228 443 238 443 227 448 c 0
 215 454 207 464 202 478 c 0
 201 482 201 483 201 491 c 0
 201 498 201 500 202 504 c 0
 204 509 208 516 211 521 c 0
 218 529 231 537 242 538 c 2
446 239 m 2
 440 241 l 1
 342 241 l 1
 241 241 l 2
 239 241 236 240 233 239 c 0
 219 234 209 223 204 208 c 2
 203 203 l 1
 203 169 l 1
 203 134 l 1
 204 130 l 2
 209 113 221 102 236 97 c 0
 240 96 245 96 308 96 c 2
 377 96 l 1
 428 125 l 1
 479 155 l 1
 479 155 479 166 478 179 c 0
 477 200 477 204 476 208 c 0
 473 217 468 226 461 231 c 0
 456 235 453 237 446 239 c 2
EndSplineSet
EndChar

StartChar: b
Encoding: 98 98 85
Width: 715
GlyphClass: 2
Flags: W
LayerCount: 2
Fore
SplineSet
146 739 m 0
 151 740 162 740 167 738 c 0
 169 738 173 736 176 735 c 0
 185 730 192 723 197 713 c 0
 203 702 202 714 202 587 c 2
 203 474 l 1
 222 490 l 2
 242 508 248 512 256 518 c 0
 269 525 286 532 300 535 c 0
 315 538 319 539 366 539 c 0
 413 539 417 538 431 535 c 0
 450 532 472 521 488 509 c 0
 496 503 534 470 539 465 c 0
 556 447 568 425 574 402 c 0
 579 384 579 393 579 272 c 0
 579 167 579 163 578 154 c 0
 574 123 561 96 540 74 c 0
 535 69 507 45 492 32 c 0
 471 15 445 4 418 1 c 0
 407 0 326 0 315 1 c 0
 298 3 282 8 268 15 c 0
 253 22 247 26 216 53 c 2
 203 64 l 1
 202 52 l 2
 202 38 201 35 197 27 c 0
 193 17 185 10 176 5 c 0
 163 -1 151 -2 138 3 c 0
 132 5 127 8 121 14 c 0
 113 22 110 29 107 40 c 0
 106 46 106 693 107 700 c 0
 110 711 113 717 121 725 c 0
 129 733 135 737 146 739 c 0
414 441 m 0
 410 442 406 442 368 443 c 0
 345 443 324 442 323 442 c 0
 316 441 309 438 304 434 c 0
 302 433 282 416 258 395 c 0
 227 369 214 358 212 355 c 0
 209 351 206 345 204 339 c 2
 203 335 l 1
 203 270 l 2
 203 209 203 204 204 201 c 0
 205 195 209 188 212 183 c 0
 214 181 227 169 258 143 c 0
 282 122 303 105 304 104 c 0
 308 101 313 99 318 97 c 0
 323 96 323 96 366 96 c 2
 410 96 l 1
 415 97 l 2
 424 100 427 103 449 121 c 0
 474 142 477 145 481 157 c 2
 483 163 l 1
 483 269 l 2
 483 370 483 375 482 378 c 0
 480 384 477 390 474 394 c 0
 472 397 465 403 452 414 c 0
 442 423 432 432 430 433 c 0
 426 436 419 440 414 441 c 0
EndSplineSet
EndChar

StartChar: c
Encoding: 99 99 86
Width: 715
GlyphClass: 2
Flags: W
LayerCount: 2
Fore
SplineSet
314 538 m 0
 324 539 533 539 539 538 c 0
 562 533 578 514 578 491 c 0
 578 472 567 454 549 447 c 0
 540 443 549 443 430 443 c 2
 322 442 l 1
 318 441 l 2
 312 439 308 437 304 434 c 0
 302 433 282 416 258 395 c 0
 227 369 214 358 212 355 c 0
 209 351 206 345 204 339 c 2
 203 335 l 1
 203 270 l 2
 203 209 203 204 204 201 c 0
 205 195 209 188 212 183 c 0
 214 181 227 169 258 143 c 0
 282 123 302 105 304 104 c 0
 308 101 313 99 318 97 c 0
 322 96 328 96 430 96 c 0
 549 95 540 96 549 92 c 0
 567 85 578 67 578 48 c 0
 578 25 562 5 539 1 c 0
 532 0 326 0 315 1 c 0
 290 4 265 13 246 28 c 0
 238 34 156 104 149 111 c 0
 130 129 117 153 111 178 c 0
 107 194 107 191 107 266 c 0
 107 332 107 335 108 344 c 0
 112 375 125 403 146 425 c 0
 151 430 235 502 245 510 c 0
 264 525 289 535 314 538 c 0
EndSplineSet
EndChar

StartChar: d
Encoding: 100 100 87
Width: 715
GlyphClass: 2
Flags: W
LayerCount: 2
Fore
SplineSet
522 739 m 0
 527 740 538 740 543 738 c 0
 548 737 557 732 561 729 c 0
 569 723 575 713 578 704 c 0
 579 700 579 686 579 370 c 0
 579 53 579 40 578 36 c 0
 577 34 575 30 574 27 c 0
 569 17 562 10 552 5 c 0
 540 -1 528 -2 515 3 c 0
 508 5 504 8 498 14 c 0
 486 26 483 35 483 54 c 2
 483 64 l 1
 464 49 l 2
 454 40 444 31 442 30 c 0
 422 14 397 4 370 1 c 0
 360 0 279 0 268 1 c 0
 242 4 216 14 196 30 c 0
 187 37 151 68 146 74 c 0
 124 96 111 124 107 157 c 0
 106 168 106 372 108 382 c 0
 112 414 125 442 146 465 c 0
 151 470 186 501 196 509 c 0
 212 521 234 531 253 535 c 0
 268 538 272 539 319 539 c 0
 360 539 364 538 372 537 c 0
 398 534 421 525 441 510 c 0
 444 507 454 498 464 490 c 2
 483 474 l 1
 483 587 l 2
 483 690 484 700 484 703 c 0
 488 713 491 720 499 726 c 0
 506 733 513 737 522 739 c 0
363 442 m 0
 357 443 280 443 274 442 c 0
 263 440 260 438 236 417 c 0
 213 398 211 396 207 387 c 0
 202 377 203 387 203 269 c 0
 203 152 202 162 207 152 c 0
 211 143 213 141 236 122 c 0
 258 102 262 100 271 97 c 2
 276 96 l 1
 319 96 l 2
 367 96 365 96 375 101 c 0
 381 103 380 102 415 133 c 2
 458 169 l 2
 474 182 477 186 481 198 c 2
 483 203 l 1
 483 269 l 1
 483 335 l 1
 481 339 l 2
 479 346 476 352 472 357 c 0
 468 361 386 432 380 435 c 0
 376 438 368 441 363 442 c 0
EndSplineSet
EndChar

StartChar: e
Encoding: 101 101 88
Width: 715
GlyphClass: 2
Flags: W
LayerCount: 2
Fore
SplineSet
267 538 m 1
 342 538 l 2
 416 539 418 538 433 535 c 0
 454 530 475 520 492 507 c 0
 507 494 535 470 539 465 c 0
 558 445 571 422 576 395 c 0
 579 380 579 378 579 307 c 0
 579 232 579 239 574 228 c 0
 571 222 567 216 561 212 c 0
 557 209 549 204 543 203 c 0
 540 202 531 201 371 201 c 2
 202 201 l 1
 203 182 l 2
 203 161 203 160 207 152 c 0
 211 143 213 141 236 122 c 0
 258 102 261 100 270 97 c 2
 275 96 l 1
 407 96 l 2
 552 95 540 96 549 92 c 0
 567 85 578 67 578 48 c 0
 578 25 562 5 539 1 c 0
 532 0 279 0 268 1 c 0
 242 4 216 14 196 30 c 0
 187 37 151 68 146 74 c 0
 124 96 111 124 108 157 c 0
 107 163 107 180 107 270 c 0
 107 371 107 376 108 384 c 0
 112 415 125 443 146 465 c 0
 151 470 179 494 194 507 c 0
 214 523 240 534 267 538 c 1
415 441 m 2
 411 442 l 1
 345 443 l 2
 276 443 274 443 268 440 c 0
 261 438 257 435 237 418 c 0
 226 408 215 399 213 397 c 0
 209 392 207 388 205 381 c 2
 203 376 l 1
 203 336 l 1
 202 297 l 1
 343 297 l 1
 483 297 l 1
 483 336 l 2
 483 380 483 378 478 388 c 0
 477 391 474 395 472 397 c 0
 470 399 460 408 449 418 c 0
 428 436 424 438 415 441 c 2
EndSplineSet
EndChar

StartChar: f
Encoding: 102 102 89
Width: 715
GlyphClass: 2
Flags: W
LayerCount: 2
Fore
SplineSet
379 739 m 0
 381 739 411 740 446 740 c 0
 516 740 515 740 524 737 c 0
 530 734 534 732 539 727 c 0
 548 719 552 710 554 699 c 0
 555 694 555 692 554 687 c 0
 553 675 549 667 540 658 c 0
 534 652 530 650 524 647 c 0
 515 644 515 644 449 644 c 0
 411 644 386 644 383 643 c 0
 356 640 332 621 323 595 c 0
 320 585 320 583 319 560 c 2
 319 539 l 1
 368 539 l 2
 407 539 418 538 421 538 c 0
 444 533 460 514 460 491 c 0
 460 468 444 448 421 444 c 0
 418 443 407 443 368 443 c 2
 319 443 l 1
 319 241 l 2
 319 49 319 39 318 36 c 0
 316 30 312 22 308 18 c 0
 304 12 299 8 292 5 c 0
 280 -1 268 -2 255 3 c 0
 248 5 244 8 238 14 c 0
 232 21 229 25 227 31 c 0
 223 40 223 28 223 243 c 2
 223 443 l 1
 196 443 l 2
 166 443 166 443 156 448 c 0
 144 454 135 465 131 478 c 0
 129 485 129 496 131 503 c 0
 135 517 144 527 156 533 c 0
 166 538 166 538 196 538 c 2
 223 539 l 1
 224 563 l 2
 224 584 224 588 225 595 c 0
 229 619 237 641 249 660 c 0
 262 681 282 701 303 714 c 0
 325 728 353 737 379 739 c 0
EndSplineSet
EndChar

StartChar: g
Encoding: 103 103 90
Width: 715
GlyphClass: 2
Flags: W
LayerCount: 2
Fore
SplineSet
267 538 m 1
 318 538 l 2
 360 539 364 538 372 537 c 0
 398 534 421 525 441 510 c 0
 444 507 454 498 464 490 c 2
 483 474 l 1
 483 486 l 2
 484 499 484 501 487 509 c 0
 490 517 499 527 507 532 c 0
 512 535 519 537 525 538 c 0
 535 539 547 537 555 532 c 0
 560 529 570 519 572 515 c 0
 573 513 575 510 576 507 c 0
 579 498 579 517 579 228 c 0
 579 -33 579 -38 578 -47 c 0
 574 -78 561 -105 540 -127 c 0
 535 -133 507 -157 492 -169 c 0
 471 -187 443 -198 415 -201 c 2
 301 -201 l 1
 193 -201 l 1
 189 -200 l 2
 167 -193 154 -175 154 -153 c 0
 154 -132 167 -114 189 -107 c 2
 193 -106 l 1
 302 -105 l 1
 411 -105 l 1
 415 -104 l 2
 424 -101 428 -98 449 -80 c 0
 474 -59 477 -56 481 -44 c 2
 483 -38 l 1
 483 33 l 2
 483 91 483 105 482 104 c 2
 482 104 473 97 464 89 c 0
 440 69 441 69 433 64 c 0
 415 52 393 44 370 41 c 0
 360 40 279 40 268 41 c 0
 242 44 216 55 196 70 c 0
 187 78 151 109 146 114 c 0
 129 132 117 154 111 178 c 0
 107 195 107 189 107 286 c 2
 107 380 l 1
 111 412 124 442 146 465 c 0
 151 470 186 501 196 509 c 0
 216 524 242 534 267 538 c 1
363 442 m 0
 357 443 280 443 274 442 c 0
 263 440 260 438 236 417 c 0
 213 398 211 396 207 387 c 0
 202 377 203 385 203 289 c 0
 203 194 202 202 207 192 c 0
 211 183 213 181 236 162 c 0
 258 143 262 141 271 138 c 2
 276 136 l 1
 319 136 l 2
 368 136 365 136 376 141 c 0
 381 144 384 146 413 171 c 2
 457 209 l 2
 474 223 477 227 481 238 c 2
 483 244 l 1
 483 289 l 1
 483 335 l 1
 481 339 l 2
 479 346 476 352 472 357 c 0
 468 361 386 432 380 435 c 0
 376 438 368 441 363 442 c 0
EndSplineSet
EndChar

StartChar: h
Encoding: 104 104 91
Width: 715
GlyphClass: 2
Flags: W
LayerCount: 2
Fore
SplineSet
146 739 m 0
 151 740 162 740 167 738 c 0
 169 738 173 736 176 735 c 0
 185 730 192 723 197 713 c 0
 203 702 202 716 202 579 c 2
 203 458 l 1
 250 488 l 2
 284 510 300 520 307 524 c 0
 322 531 338 536 355 538 c 0
 367 539 437 539 445 537 c 0
 477 532 504 518 526 495 c 0
 549 472 562 443 566 411 c 0
 566 404 578 65 578 50 c 0
 578 43 578 40 577 36 c 0
 571 14 551 -1 528 0 c 0
 507 2 490 16 484 37 c 0
 483 41 483 55 477 221 c 0
 472 361 470 401 470 405 c 0
 466 422 455 435 439 440 c 2
 433 442 l 1
 398 442 l 2
 358 442 359 443 350 438 c 0
 348 437 314 416 274 390 c 2
 203 344 l 1
 202 192 l 2
 202 20 203 38 197 27 c 0
 192 17 185 10 176 5 c 0
 163 -1 151 -2 138 3 c 0
 132 5 127 8 121 14 c 0
 113 22 110 29 107 40 c 0
 106 46 106 693 107 700 c 0
 110 711 113 717 121 725 c 0
 129 733 135 737 146 739 c 0
EndSplineSet
EndChar

StartChar: i
Encoding: 105 105 92
Width: 715
GlyphClass: 2
Flags: W
LayerCount: 2
Fore
SplineSet
194 538 m 2
 274 538 l 2
 361 538 353 539 364 533 c 0
 370 530 375 526 380 521 c 0
 383 517 387 508 389 503 c 0
 390 499 390 489 390 297 c 2
 390 96 l 1
 441 96 l 1
 492 95 l 1
 496 94 l 2
 510 90 521 81 526 69 c 0
 530 61 531 58 531 48 c 0
 531 38 530 34 526 27 c 0
 521 15 509 6 496 2 c 2
 491 0 l 1
 342 0 l 1
 194 0 l 1
 189 2 l 2
 168 8 154 26 154 48 c 0
 154 69 167 88 189 94 c 2
 193 95 l 1
 244 96 l 1
 295 96 l 1
 295 269 l 1
 295 443 l 1
 244 443 l 1
 193 443 l 1
 189 445 l 1
 163 452 149 477 155 502 c 0
 159 520 175 535 194 538 c 2
287 779 m 0
 290 780 297 780 321 780 c 0
 355 780 354 780 364 775 c 0
 373 770 380 763 385 753 c 0
 390 743 390 744 390 712 c 0
 390 680 390 681 385 671 c 0
 380 661 373 654 364 649 c 0
 354 644 354 644 322 644 c 0
 291 644 288 644 279 647 c 0
 272 649 268 652 262 658 c 0
 256 665 253 669 251 675 c 0
 248 683 248 686 248 712 c 0
 248 738 248 741 251 749 c 0
 253 755 256 760 262 766 c 0
 270 773 276 777 287 779 c 0
EndSplineSet
EndChar

StartChar: j
Encoding: 106 106 93
Width: 715
GlyphClass: 2
Flags: W
LayerCount: 2
Fore
SplineSet
289 538 m 2
 391 538 l 2
 505 538 494 539 505 533 c 0
 517 527 526 517 530 503 c 0
 531 499 531 487 531 216 c 0
 531 -64 531 -67 530 -77 c 0
 526 -108 513 -135 491 -158 c 0
 470 -180 444 -193 413 -199 c 2
 405 -201 l 1
 347 -201 l 2
 286 -201 282 -201 268 -198 c 0
 252 -195 232 -187 218 -178 c 0
 185 -156 163 -123 155 -86 c 0
 152 -72 153 -62 159 -51 c 0
 161 -46 162 -45 168 -39 c 0
 173 -34 175 -33 179 -31 c 0
 187 -27 193 -25 201 -25 c 0
 211 -25 220 -28 229 -34 c 0
 240 -41 245 -50 249 -68 c 0
 253 -85 266 -98 283 -104 c 2
 288 -105 l 1
 343 -105 l 1
 398 -105 l 1
 404 -103 l 2
 410 -101 413 -99 419 -95 c 0
 425 -90 431 -82 434 -72 c 2
 435 -68 l 1
 435 187 l 1
 436 443 l 1
 361 443 l 2
 278 443 285 443 274 448 c 0
 262 454 253 465 249 478 c 0
 247 485 247 496 249 503 c 0
 252 513 258 522 265 528 c 0
 271 533 281 537 289 538 c 2
428 779 m 0
 431 780 438 780 462 780 c 0
 496 780 495 780 505 775 c 0
 514 770 521 763 526 753 c 0
 531 743 531 744 531 712 c 0
 531 680 531 681 526 671 c 0
 521 661 514 654 505 649 c 0
 495 644 495 644 463 644 c 0
 432 644 429 644 420 647 c 0
 413 649 409 652 403 658 c 0
 397 665 394 669 392 675 c 0
 389 683 389 686 389 712 c 0
 389 738 389 741 392 749 c 0
 394 755 397 760 403 766 c 0
 411 773 417 777 428 779 c 0
EndSplineSet
EndChar

StartChar: k
Encoding: 107 107 94
Width: 715
GlyphClass: 2
Flags: W
LayerCount: 2
Fore
SplineSet
146 739 m 0
 151 740 162 740 167 738 c 0
 172 737 180 732 185 729 c 0
 192 723 198 714 201 704 c 0
 202 700 202 691 202 507 c 2
 203 313 l 1
 327 420 l 2
 396 479 453 528 455 529 c 0
 459 532 466 535 472 537 c 0
 478 539 489 539 495 537 c 0
 501 536 509 531 513 528 c 0
 535 511 537 479 519 459 c 0
 518 457 473 418 419 373 c 0
 366 327 322 290 322 289 c 2
 440 188 l 2
 505 132 560 85 563 83 c 0
 573 74 578 62 578 48 c 0
 578 43 578 40 577 36 c 0
 568 3 529 -11 502 10 c 0
 498 13 254 221 250 225 c 2
 248 227 l 1
 226 207 l 1
 203 187 l 1
 202 113 l 2
 202 30 202 37 197 27 c 0
 192 17 185 10 176 5 c 0
 163 -1 151 -2 138 3 c 0
 132 5 127 8 121 14 c 0
 113 22 110 29 107 40 c 0
 106 46 106 693 107 700 c 0
 110 711 113 717 121 725 c 0
 129 733 135 737 146 739 c 0
EndSplineSet
EndChar

StartChar: l
Encoding: 108 108 95
Width: 715
GlyphClass: 2
Flags: HW
LayerCount: 2
Fore
SplineSet
492 0 m 2
 390 0 l 1
 337.559570312 0 295 43.0078125 295 96 c 0
 295 644 l 1
 193 644 l 1
 193 740 l 0
 390 740 l 1
 390 96 l 1
 492 95 l 2
 544.012456336 94.4900739575 543.989606352 -6.36668022716e-15 492 0 c 2
EndSplineSet
EndChar

StartChar: m
Encoding: 109 109 96
Width: 715
GlyphClass: 2
Flags: W
LayerCount: 2
Fore
SplineSet
138 538 m 0
 149 540 161 538 171 532 c 0
 179 527 188 517 191 509 c 0
 191 508 192 506 192 506 c 1
 192 506 195 507 197 509 c 0
 215 525 236 535 260 538 c 0
 291 542 323 532 348 512 c 0
 352 509 361 500 364 496 c 2
 366 493 l 1
 377 502 l 2
 392 515 392 516 399 520 c 0
 421 534 449 541 474 538 c 0
 498 534 520 524 537 507 c 0
 557 488 569 464 572 436 c 0
 573 428 586 51 586 45 c 0
 586 38 584 33 581 27 c 0
 576 17 569 10 559 5 c 0
 553 2 548 1 541 0 c 0
 532 0 522 2 514 7 c 0
 510 9 500 19 497 24 c 0
 495 28 492 35 491 40 c 0
 491 43 487 130 484 236 c 0
 479 385 477 427 476 430 c 0
 475 434 471 438 467 441 c 0
 463 443 463 443 460 443 c 0
 458 442 455 442 454 441 c 0
 452 440 439 430 421 414 c 2
 391 388 l 1
 390 214 l 2
 390 48 390 39 389 36 c 0
 387 30 383 22 380 18 c 0
 375 12 370 8 364 5 c 0
 351 -1 339 -2 326 3 c 0
 320 5 316 8 310 13 c 0
 303 20 299 26 296 37 c 0
 295 40 295 55 295 234 c 2
 294 427 l 1
 293 431 l 2
 291 435 287 439 283 441 c 0
 280 442 278 442 274 442 c 0
 269 442 268 442 265 440 c 0
 262 439 248 427 228 409 c 2
 195 381 l 1
 195 210 l 2
 194 48 194 39 193 36 c 0
 191 30 187 22 184 18 c 0
 179 12 174 8 168 5 c 0
 156 -1 143 -2 131 3 c 0
 124 5 120 8 113 14 c 0
 105 22 102 29 100 40 c 0
 98 46 98 492 100 499 c 0
 102 510 105 516 113 524 c 0
 121 532 128 536 138 538 c 0
EndSplineSet
EndChar

StartChar: n
Encoding: 110 110 97
Width: 715
GlyphClass: 2
Flags: W
LayerCount: 2
Fore
SplineSet
146 538 m 0
 157 540 169 538 179 532 c 0
 187 527 196 516 199 509 c 0
 202 500 202 500 202 478 c 2
 203 458 l 1
 250 488 l 2
 284 510 300 520 307 524 c 0
 322 531 338 536 355 538 c 0
 367 539 437 539 445 537 c 0
 477 532 504 518 526 495 c 0
 549 472 562 443 566 411 c 0
 566 404 578 65 578 50 c 0
 578 43 578 40 577 36 c 0
 571 14 551 -1 528 0 c 0
 510 1 495 12 487 28 c 0
 483 38 484 23 477 221 c 0
 472 361 470 401 470 405 c 0
 466 422 455 435 439 440 c 2
 433 442 l 1
 398 442 l 2
 358 442 359 443 350 438 c 0
 348 437 314 416 274 390 c 2
 203 344 l 1
 202 192 l 2
 202 20 203 38 197 27 c 0
 192 17 185 10 176 5 c 0
 163 -1 151 -2 138 3 c 0
 132 5 127 8 121 14 c 0
 113 22 110 29 107 40 c 0
 106 46 106 492 107 499 c 0
 110 510 113 516 121 524 c 0
 129 532 136 536 146 538 c 0
EndSplineSet
EndChar

StartChar: o
Encoding: 111 111 98
Width: 715
GlyphClass: 2
Flags: W
LayerCount: 2
Fore
SplineSet
267 538 m 1
 345 538 l 2
 411 538 417 538 423 537 c 0
 432 536 444 533 451 530 c 0
 464 525 481 515 491 508 c 0
 505 495 532 473 536 468 c 0
 560 445 574 416 578 382 c 0
 579 376 579 358 579 269 c 0
 579 167 579 163 578 154 c 0
 574 122 559 93 536 70 c 0
 532 66 505 42 491 31 c 0
 476 19 453 8 432 3 c 0
 418 0 416 0 343 0 c 0
 270 0 269 0 253 3 c 0
 234 7 212 18 196 30 c 0
 187 37 151 68 146 74 c 0
 124 96 111 124 108 157 c 0
 107 163 107 180 107 270 c 0
 107 371 107 376 108 384 c 0
 112 415 125 443 146 465 c 0
 151 470 188 503 197 509 c 0
 216 524 241 534 267 538 c 1
414 441 m 0
 411 442 406 442 344 443 c 0
 275 443 275 443 268 440 c 0
 263 439 258 436 254 433 c 2
 233 414 l 2
 211 396 209 393 205 381 c 2
 203 376 l 1
 203 270 l 2
 203 151 202 162 207 152 c 0
 211 143 213 141 236 122 c 0
 254 106 258 103 262 101 c 0
 273 96 267 96 343 96 c 0
 417 96 412 96 421 100 c 0
 427 103 430 104 451 123 c 0
 475 143 477 145 481 157 c 2
 483 163 l 1
 483 269 l 2
 483 368 483 375 482 378 c 0
 480 384 477 391 473 396 c 0
 471 399 434 431 428 435 c 0
 425 437 419 440 414 441 c 0
EndSplineSet
EndChar

StartChar: p
Encoding: 112 112 99
Width: 715
GlyphClass: 2
Flags: W
LayerCount: 2
Fore
SplineSet
143 557 m 0
 150 559 159 559 166 557 c 0
 182 553 196 540 201 523 c 0
 202 519 202 517 202 502 c 2
 203 485 l 1
 222 505 l 2
 233 515 244 526 246 528 c 0
 269 545 294 555 322 558 c 0
 332 559 367 558 375 557 c 0
 396 554 416 546 432 536 c 0
 440 530 443 528 462 511 c 0
 518 463 535 448 539 444 c 0
 560 423 573 396 578 366 c 0
 579 359 579 352 579 269 c 2
 579 179 l 1
 577 171 l 2
 572 141 559 116 540 95 c 0
 535 90 462 26 444 12 c 0
 424 -5 397 -16 370 -19 c 0
 360 -20 330 -20 319 -19 c 0
 292 -16 268 -6 246 11 c 2
 222 34 l 1
 202 53 l 1
 202 -54 l 2
 202 -175 203 -164 197 -174 c 0
 192 -184 185 -191 176 -196 c 0
 167 -200 164 -201 155 -201 c 0
 145 -201 141 -200 133 -196 c 0
 124 -191 117 -184 112 -174 c 0
 110 -171 109 -167 108 -165 c 0
 107 -161 107 -147 107 179 c 2
 107 518 l 1
 108 523 l 2
 113 540 127 553 143 557 c 0
367 461 m 0
 362 463 332 463 326 462 c 0
 319 460 313 458 307 454 c 0
 303 451 217 365 213 360 c 0
 209 355 207 352 205 345 c 2
 203 339 l 1
 203 272 l 2
 202 227 203 203 203 200 c 0
 204 195 207 187 210 182 c 0
 213 178 297 93 305 87 c 0
 310 82 316 79 322 78 c 0
 327 76 328 76 345 76 c 0
 361 76 363 76 367 78 c 0
 377 80 378 81 425 122 c 0
 449 142 470 161 472 163 c 0
 476 167 479 174 481 180 c 2
 483 185 l 1
 483 269 l 2
 483 349 483 354 482 357 c 0
 480 362 477 370 474 374 c 0
 472 376 387 450 381 454 c 0
 377 457 372 460 367 461 c 0
EndSplineSet
EndChar

StartChar: q
Encoding: 113 113 100
Width: 715
GlyphClass: 2
Flags: W
LayerCount: 2
Fore
SplineSet
267 538 m 1
 318 538 l 2
 360 539 364 538 372 537 c 0
 398 534 421 525 441 510 c 0
 444 507 454 498 464 490 c 2
 483 474 l 1
 483 486 l 2
 484 499 484 501 487 509 c 0
 490 517 499 527 507 532 c 0
 512 535 519 537 525 538 c 0
 535 539 547 537 555 532 c 0
 560 529 570 519 572 515 c 0
 575 510 577 503 578 498 c 0
 579 494 579 412 579 166 c 0
 579 -148 579 -162 578 -165 c 0
 573 -179 564 -190 552 -196 c 0
 544 -200 540 -201 531 -201 c 0
 522 -201 518 -200 510 -196 c 0
 500 -191 493 -184 488 -174 c 0
 483 -164 484 -176 483 -49 c 2
 483 64 l 1
 464 49 l 2
 454 40 444 31 442 30 c 0
 422 14 397 4 370 1 c 0
 360 0 279 0 268 1 c 0
 242 4 216 14 196 30 c 0
 187 37 151 68 146 74 c 0
 124 96 111 124 107 157 c 0
 106 168 106 372 108 382 c 0
 112 414 125 442 146 465 c 0
 151 470 186 501 196 509 c 0
 216 524 242 534 267 538 c 1
363 442 m 0
 357 443 280 443 274 442 c 0
 263 440 260 438 236 417 c 0
 213 398 211 396 207 387 c 0
 202 377 203 387 203 269 c 0
 203 152 202 162 207 152 c 0
 211 143 213 141 236 122 c 0
 258 102 262 100 271 97 c 2
 276 96 l 1
 319 96 l 2
 367 96 365 96 375 101 c 0
 381 103 380 102 415 133 c 2
 458 169 l 2
 474 182 477 186 481 198 c 2
 483 203 l 1
 483 269 l 1
 483 335 l 1
 481 339 l 2
 479 346 476 352 472 357 c 0
 468 361 386 432 380 435 c 0
 376 438 368 441 363 442 c 0
EndSplineSet
EndChar

StartChar: r
Encoding: 114 114 101
Width: 715
GlyphClass: 2
Flags: W
LayerCount: 2
Fore
SplineSet
146 538 m 0
 157 540 169 538 179 532 c 0
 183 529 193 519 196 515 c 0
 197 513 198 510 199 507 c 0
 202 499 202 497 202 464 c 0
 202 448 203 434 203 434 c 1
 258 481 l 2
 288 507 314 529 317 531 c 0
 321 534 325 535 332 537 c 0
 335 538 341 538 392 538 c 0
 455 538 454 538 470 535 c 0
 527 521 570 473 578 414 c 0
 579 402 579 369 578 361 c 0
 574 338 554 322 531 322 c 0
 509 322 491 336 485 357 c 0
 484 361 484 364 483 383 c 2
 483 405 l 1
 481 411 l 2
 479 417 477 421 473 426 c 0
 469 431 463 435 457 438 c 0
 447 443 449 442 402 442 c 2
 360 442 l 1
 281 375 l 1
 202 308 l 1
 202 174 l 2
 202 22 203 38 197 27 c 0
 192 17 185 10 176 5 c 0
 163 -1 151 -2 138 3 c 0
 132 5 127 8 121 14 c 0
 113 22 110 29 107 40 c 0
 106 46 106 492 107 499 c 0
 110 510 113 516 121 524 c 0
 129 532 136 536 146 538 c 0
EndSplineSet
EndChar

StartChar: s
Encoding: 115 115 102
Width: 715
GlyphClass: 2
Flags: W
LayerCount: 2
Fore
SplineSet
225 538 m 0
 234 539 447 539 457 538 c 0
 491 534 522 518 546 494 c 0
 558 482 565 471 567 461 c 0
 569 454 569 444 567 438 c 0
 566 435 564 431 563 429 c 0
 554 411 534 400 515 403 c 0
 501 405 491 411 481 423 c 0
 474 432 465 438 455 441 c 2
 450 442 l 1
 344 443 l 2
 271 443 236 443 234 442 c 0
 226 441 218 434 214 427 c 0
 213 424 212 423 212 418 c 0
 212 414 213 412 214 410 c 0
 216 405 220 399 224 397 c 0
 225 396 265 378 314 356 c 0
 509 271 501 274 512 267 c 0
 536 251 555 228 566 204 c 0
 579 174 582 142 574 112 c 0
 561 57 518 15 463 3 c 0
 447 0 449 0 338 0 c 0
 237 0 236 0 228 2 c 0
 213 4 202 7 184 15 c 0
 164 23 150 30 133 44 c 0
 119 55 115 60 111 68 c 0
 105 81 105 97 112 109 c 0
 120 127 140 138 160 136 c 0
 170 134 177 131 189 122 c 0
 203 111 206 109 220 103 c 0
 230 99 237 97 244 96 c 2
 345 96 l 1
 441 96 l 1
 446 97 l 2
 460 102 471 111 477 124 c 0
 488 145 482 170 463 185 c 0
 461 186 458 188 456 189 c 0
 453 190 397 215 262 274 c 0
 221 292 186 308 183 310 c 0
 172 315 160 324 151 334 c 0
 132 353 121 377 117 404 c 0
 113 436 123 468 144 493 c 0
 165 518 193 533 225 538 c 0
EndSplineSet
EndChar

StartChar: t
Encoding: 116 116 103
Width: 715
GlyphClass: 2
Flags: W
LayerCount: 2
Fore
SplineSet
239 699 m 0
 244 700 256 699 261 698 c 0
 263 697 267 696 270 694 c 0
 279 689 287 682 291 673 c 0
 296 662 296 667 296 599 c 2
 296 539 l 1
 394 538 l 1
 492 538 l 1
 496 537 l 2
 510 533 521 524 526 512 c 0
 530 504 531 500 531 491 c 0
 531 481 530 477 526 469 c 0
 521 458 510 449 496 444 c 2
 492 443 l 1
 394 443 l 1
 296 443 l 1
 297 288 l 1
 297 133 l 1
 299 128 l 2
 302 119 307 112 313 106 c 0
 319 102 322 100 328 98 c 2
 334 96 l 1
 389 96 l 2
 451 96 447 96 458 101 c 0
 470 107 479 119 483 133 c 0
 486 146 489 153 495 160 c 0
 505 171 521 178 536 176 c 0
 563 172 582 148 578 122 c 0
 573 87 554 54 526 32 c 0
 509 18 485 7 464 3 c 0
 449 0 447 0 385 0 c 2
 327 0 l 1
 319 2 l 2
 288 8 262 21 241 43 c 0
 219 66 206 93 202 125 c 0
 201 134 201 138 201 288 c 2
 201 443 l 1
 173 443 l 2
 147 443 146 443 142 444 c 0
 120 451 107 469 107 491 c 0
 107 512 120 530 142 537 c 0
 146 538 147 538 173 538 c 2
 201 539 l 1
 201 599 l 2
 201 667 201 662 206 673 c 0
 212 686 224 695 239 699 c 0
EndSplineSet
EndChar

StartChar: u
Encoding: 117 117 104
Width: 715
GlyphClass: 2
Flags: W
LayerCount: 2
Fore
SplineSet
147 538 m 0
 151 539 162 538 167 537 c 0
 184 532 196 519 201 502 c 0
 202 498 202 483 208 318 c 0
 213 177 215 137 215 133 c 0
 218 117 230 104 246 98 c 2
 252 96 l 1
 287 96 l 2
 326 96 326 96 334 100 c 0
 337 101 371 123 411 148 c 2
 483 195 l 1
 483 345 l 2
 483 507 483 498 486 507 c 0
 487 510 489 513 490 515 c 0
 492 519 502 529 507 532 c 0
 512 535 519 537 525 538 c 0
 535 539 547 537 555 532 c 0
 560 529 570 519 572 515 c 0
 575 510 577 503 578 498 c 0
 579 494 579 437 579 266 c 0
 579 50 579 39 578 36 c 0
 576 30 571 22 568 18 c 0
 562 10 552 4 543 2 c 0
 531 -1 517 1 507 7 c 0
 499 11 490 22 487 30 c 0
 484 38 484 39 483 61 c 2
 483 81 l 1
 435 50 l 2
 382 17 375 13 360 8 c 0
 350 4 340 2 330 1 c 0
 318 0 248 0 240 1 c 0
 208 7 181 21 159 43 c 0
 136 67 123 95 119 128 c 0
 119 135 107 474 107 488 c 0
 107 498 108 503 111 510 c 0
 117 525 131 535 147 538 c 0
EndSplineSet
EndChar

StartChar: v
Encoding: 118 118 105
Width: 715
GlyphClass: 2
Flags: W
LayerCount: 2
Fore
SplineSet
146 538 m 0
 157 540 169 538 179 532 c 0
 183 529 193 519 196 515 c 0
 197 513 198 510 199 507 c 0
 202 499 202 497 202 457 c 2
 202 420 l 1
 272 260 l 1
 343 100 l 1
 413 260 l 1
 483 420 l 1
 483 457 l 2
 483 497 483 499 486 507 c 0
 489 514 491 518 498 524 c 0
 504 530 508 533 515 536 c 0
 525 539 537 539 547 536 c 0
 554 533 558 530 564 524 c 0
 571 518 573 514 576 507 c 0
 579 499 579 498 579 450 c 0
 579 401 579 401 575 391 c 0
 567 372 415 25 413 22 c 0
 410 17 401 9 397 7 c 0
 392 4 387 2 381 1 c 0
 374 0 311 0 305 1 c 0
 299 2 293 4 289 7 c 0
 284 9 276 17 273 22 c 0
 271 25 118 372 111 391 c 0
 107 401 107 401 107 450 c 0
 107 498 107 499 110 507 c 0
 112 514 115 518 121 524 c 0
 129 532 136 536 146 538 c 0
EndSplineSet
EndChar

StartChar: w
Encoding: 119 119 106
Width: 715
GlyphClass: 2
Flags: W
LayerCount: 2
Fore
SplineSet
136 538 m 0
 153 541 171 534 181 521 c 0
 185 517 189 508 191 503 c 0
 191 501 192 495 192 490 c 0
 193 485 195 422 197 349 c 2
 202 217 l 1
 217 166 l 2
 225 137 232 115 232 115 c 1
 263 169 l 1
 295 222 l 1
 295 278 l 2
 295 339 295 338 298 347 c 0
 302 358 311 367 321 372 c 0
 329 376 334 377 342 377 c 0
 351 377 356 376 364 372 c 0
 374 367 383 358 387 347 c 0
 390 338 390 339 390 278 c 2
 390 222 l 1
 421 169 l 1
 453 115 l 1
 453 115 460 137 468 166 c 2
 483 217 l 1
 488 349 l 2
 490 422 492 485 493 490 c 0
 493 501 494 505 498 512 c 0
 503 522 510 529 520 534 c 0
 539 543 560 539 575 523 c 0
 582 516 587 507 588 497 c 0
 588 493 588 463 584 352 c 0
 581 275 579 209 578 206 c 0
 578 200 576 192 553 116 c 0
 535 52 528 30 526 27 c 0
 521 15 510 6 496 2 c 0
 492 0 491 0 463 0 c 0
 442 0 433 0 430 1 c 0
 419 2 409 7 402 16 c 0
 398 20 395 25 370 67 c 0
 355 93 343 114 342 114 c 2
 315 67 l 1
 288 20 l 1
 282 14 l 2
 276 8 272 5 265 3 c 0
 256 0 253 0 222 0 c 0
 194 0 193 0 189 2 c 0
 175 6 164 15 159 27 c 0
 157 30 150 52 132 116 c 0
 109 192 107 200 107 206 c 0
 106 209 104 275 101 352 c 0
 96 503 96 497 99 506 c 0
 104 522 119 535 136 538 c 0
EndSplineSet
EndChar

StartChar: x
Encoding: 120 120 107
Width: 715
GlyphClass: 2
Flags: W
LayerCount: 2
Fore
SplineSet
157 538 m 0
 161 539 172 538 176 537 c 0
 184 535 194 529 199 524 c 0
 200 522 233 482 272 436 c 0
 339 354 342 351 343 352 c 0
 344 352 376 391 414 437 c 0
 452 483 485 523 486 524 c 0
 490 528 495 532 501 534 c 0
 531 548 565 528 568 494 c 0
 569 486 567 476 562 468 c 0
 561 465 538 437 483 370 c 0
 440 318 405 276 405 275 c 2
 486 177 l 2
 530 124 568 78 569 76 c 0
 584 57 581 30 563 13 c 0
 544 -5 513 -4 495 16 c 0
 493 18 458 60 417 110 c 2
 343 200 l 1
 339 197 l 1
 263 104 l 2
 222 55 188 14 186 12 c 0
 163 -9 124 -1 111 28 c 0
 104 44 106 63 116 76 c 0
 117 78 155 124 199 177 c 2
 280 275 l 2
 280 276 245 318 202 370 c 0
 147 437 124 465 123 468 c 0
 118 476 116 486 117 494 c 0
 117 499 119 507 121 512 c 0
 128 525 142 535 157 538 c 0
EndSplineSet
EndChar

StartChar: y
Encoding: 121 121 108
Width: 715
GlyphClass: 2
Flags: W
LayerCount: 2
Fore
SplineSet
146 538 m 0
 157 540 169 538 179 532 c 0
 183 529 193 519 196 515 c 0
 197 513 198 510 199 507 c 0
 202 499 202 497 202 457 c 2
 202 420 l 1
 265 278 l 1
 327 136 l 1
 343 136 l 1
 359 136 l 1
 421 278 l 1
 483 420 l 1
 483 457 l 2
 483 497 483 499 486 507 c 0
 489 514 491 518 498 524 c 0
 504 530 508 533 515 536 c 0
 525 539 537 539 547 536 c 0
 554 533 558 530 564 524 c 0
 571 518 573 514 576 507 c 0
 579 499 579 498 579 450 c 0
 579 401 579 401 575 391 c 0
 569 377 326 -175 325 -178 c 0
 320 -187 310 -195 300 -198 c 0
 291 -201 292 -201 216 -201 c 2
 146 -201 l 1
 142 -200 l 2
 120 -193 107 -175 107 -153 c 0
 107 -132 120 -114 142 -107 c 0
 146 -106 146 -106 199 -105 c 2
 253 -105 l 1
 284 -33 l 1
 316 40 l 1
 304 40 l 2
 287 40 280 42 271 47 c 0
 267 50 257 60 254 64 c 0
 253 67 113 386 110 393 c 0
 107 402 107 403 107 450 c 0
 107 498 107 499 110 507 c 0
 112 514 115 518 121 524 c 0
 129 532 136 536 146 538 c 0
EndSplineSet
EndChar

StartChar: z
Encoding: 122 122 109
Width: 715
GlyphClass: 2
Flags: W
LayerCount: 2
Fore
SplineSet
170 538 m 2
 356 538 l 2
 531 538 540 538 543 537 c 0
 549 535 557 531 561 528 c 0
 567 523 571 518 574 512 c 0
 579 502 578 502 579 473 c 0
 579 446 579 442 576 434 c 0
 574 428 571 424 567 419 c 2
 398 256 l 1
 232 96 l 1
 385 96 l 2
 529 96 539 95 542 94 c 0
 551 92 558 88 563 83 c 0
 573 73 578 61 578 48 c 0
 578 25 562 5 539 1 c 0
 533 0 153 0 146 1 c 0
 136 3 129 6 121 14 c 0
 113 22 110 29 107 40 c 0
 106 46 106 90 107 97 c 0
 109 106 113 113 118 119 c 2
 288 282 l 1
 454 442 l 1
 311 443 l 1
 169 443 l 1
 164 444 l 2
 139 452 125 477 131 502 c 0
 135 520 151 535 170 538 c 2
EndSplineSet
EndChar

StartChar: braceleft
Encoding: 123 123 110
Width: 715
GlyphClass: 2
Flags: W
LayerCount: 2
Fore
SplineSet
379 739 m 0
 381 739 417 740 459 740 c 0
 522 740 536 740 539 739 c 0
 562 735 578 715 578 692 c 0
 578 669 562 649 539 645 c 0
 536 644 522 644 463 644 c 2
 390 644 l 1
 390 551 l 2
 390 450 390 451 387 436 c 0
 382 414 372 393 359 377 c 2
 354 371 l 2
 354 370 355 368 358 365 c 0
 367 354 376 337 382 323 c 0
 384 316 387 306 389 296 c 2
 390 289 l 1
 390 192 l 1
 390 96 l 1
 463 96 l 2
 522 96 536 96 539 95 c 0
 562 91 578 71 578 48 c 0
 578 25 562 5 539 1 c 0
 536 0 522 0 459 0 c 0
 379 0 378 0 367 3 c 0
 333 12 307 38 298 71 c 0
 295 83 295 77 295 183 c 0
 294 295 295 285 290 295 c 0
 284 307 273 317 259 321 c 0
 255 322 250 322 201 322 c 0
 146 323 146 323 142 324 c 0
 120 331 107 348 107 370 c 0
 107 392 120 410 142 416 c 0
 146 418 146 418 201 418 c 0
 261 419 257 418 267 423 c 0
 280 429 289 440 293 454 c 0
 294 457 294 463 295 557 c 2
 295 656 l 1
 296 662 l 2
 302 686 313 705 331 719 c 0
 344 729 362 737 379 739 c 0
EndSplineSet
EndChar

StartChar: bar
Encoding: 124 124 111
Width: 715
GlyphClass: 2
Flags: W
LayerCount: 2
Fore
SplineSet
295 183 m 2
 295 322 l 1
 342 322 l 1
 390 322 l 1
 390 181 l 2
 390 22 391 38 385 27 c 0
 380 17 373 10 364 5 c 0
 351 -1 339 -2 326 3 c 0
 319 5 315 8 309 14 c 0
 303 21 300 25 298 31 c 0
 294 40 295 33 295 183 c 2
334 739 m 0
 339 740 349 740 355 738 c 0
 357 738 361 736 364 735 c 0
 373 730 380 723 385 713 c 0
 391 702 390 718 390 559 c 2
 390 418 l 1
 342 418 l 1
 295 418 l 1
 295 557 l 2
 295 707 294 699 298 709 c 0
 300 715 303 719 309 725 c 0
 317 733 323 737 334 739 c 0
EndSplineSet
EndChar

StartChar: braceright
Encoding: 125 125 112
Width: 715
GlyphClass: 2
Flags: W
LayerCount: 2
Fore
SplineSet
147 739 m 0
 148 739 184 740 225 740 c 0
 306 740 306 740 318 737 c 0
 352 728 378 702 387 669 c 0
 390 657 390 663 390 557 c 2
 391 458 l 1
 392 453 l 2
 396 440 405 429 418 423 c 0
 428 418 423 418 484 418 c 0
 544 418 540 418 549 414 c 0
 567 407 578 389 578 370 c 0
 578 351 567 333 549 326 c 0
 540 322 544 323 484 322 c 0
 424 322 428 322 418 317 c 0
 408 313 400 305 395 295 c 0
 390 285 391 295 390 183 c 2
 390 83 l 1
 389 77 l 2
 385 61 378 47 369 35 c 0
 354 18 336 7 313 2 c 2
 306 0 l 1
 227 0 l 1
 147 0 l 1
 142 2 l 2
 120 8 107 26 107 48 c 0
 107 70 120 88 142 94 c 2
 146 95 l 1
 220 96 l 1
 295 96 l 1
 295 189 l 2
 295 278 295 283 296 292 c 0
 297 302 300 314 303 323 c 0
 308 337 318 354 327 365 c 0
 330 368 331 370 331 371 c 2
 331 371 328 374 326 377 c 0
 313 393 303 414 298 436 c 0
 295 451 295 450 295 551 c 2
 295 644 l 1
 220 644 l 1
 146 644 l 1
 142 646 l 2
 128 650 116 660 111 672 c 0
 105 684 105 699 111 712 c 0
 117 726 131 736 147 739 c 0
EndSplineSet
EndChar

StartChar: asciitilde
Encoding: 126 126 113
Width: 715
GlyphClass: 2
Flags: W
LayerCount: 2
Fore
SplineSet
234 739 m 0
 259 742 285 737 309 726 c 0
 332 714 352 697 366 675 c 0
 378 657 385 640 388 619 c 0
 390 611 390 610 390 574 c 2
 391 538 l 1
 393 532 l 2
 397 519 406 508 418 502 c 0
 425 499 431 498 438 498 c 0
 445 499 449 500 456 503 c 0
 466 508 474 516 478 526 c 0
 483 535 483 531 483 599 c 0
 484 667 483 662 488 673 c 0
 493 682 500 689 510 694 c 0
 518 698 522 699 531 699 c 0
 540 699 544 698 552 694 c 0
 562 689 569 682 574 673 c 0
 579 662 579 667 579 596 c 0
 579 532 579 532 577 524 c 0
 575 509 571 497 565 484 c 0
 546 446 511 417 470 407 c 0
 459 404 451 403 440 403 c 0
 375 400 315 447 299 512 c 0
 295 527 295 529 295 568 c 2
 294 605 l 1
 292 610 l 2
 288 624 279 634 267 640 c 0
 260 643 254 644 247 644 c 0
 230 643 215 632 207 617 c 0
 202 607 203 612 202 543 c 0
 202 475 202 480 197 470 c 0
 193 460 185 453 176 448 c 0
 167 444 164 443 155 443 c 0
 145 443 141 444 133 448 c 0
 124 453 117 460 112 470 c 0
 107 480 107 475 107 543 c 0
 107 601 107 604 108 613 c 0
 112 645 125 673 147 696 c 0
 171 720 201 735 234 739 c 0
EndSplineSet
EndChar

StartChar: uni007F
Encoding: 127 127 114
Width: 715
GlyphClass: 2
Flags: W
LayerCount: 2
Fore
SplineSet
83 370 m 1
 83 764 l 1
 342 764 l 1
 602 764 l 1
 602 370 l 1
 602 -24 l 1
 342 -24 l 1
 83 -24 l 1
 83 370 l 1
EndSplineSet
EndChar
